<svg xmlns="http://www.w3.org/2000/svg" width="342" height="100" viewBox="0 0 342 100" version="1.1">
	<path fill-opacity="0.518" d="M 47 8.957 L 60.500 9.500 60.500 21.251 C 60.500 29.538, 60.156 33.002, 59.333 33.001 C 58.692 33.001, 58.017 33.416, 57.833 33.925 C 57.650 34.434, 56.825 34.996, 56 35.175 C 55.175 35.354, 54.128 35.950, 53.674 36.500 C 53.141 37.145, 52.663 37.042, 52.327 36.208 C 51.901 35.153, 51.519 35.153, 50.240 36.208 C 48.999 37.232, 48.588 37.241, 48.254 36.250 C 48.023 35.563, 46.597 35, 45.086 35 C 41.801 35, 40.631 37.031, 39.093 45.395 C 38.496 48.638, 36.921 53.237, 35.591 55.617 C 34.261 57.996, 33.400 60.812, 33.677 61.874 C 34.098 63.483, 33.292 64.065, 28.841 65.365 C 25.665 66.292, 22.965 67.790, 22.181 69.060 C 20.518 71.750, 20.856 72.056, 26.167 72.664 C 35.013 73.677, 39.446 76.909, 32.250 77.099 L 28.500 77.198 33 78.694 C 39.293 80.787, 71.485 81.680, 81.633 80.043 C 85.806 79.370, 90.858 78.225, 92.860 77.499 L 96.500 76.179 92.500 76.340 C 90.300 76.428, 88.387 76.050, 88.250 75.500 C 87.954 74.317, 90.734 73.395, 97.250 72.517 C 100.046 72.141, 102 71.363, 102 70.626 C 102 68.707, 96.834 64.225, 93.741 63.461 C 92.223 63.085, 90.737 62.383, 90.438 61.900 C 90.140 61.417, 88.682 61.746, 87.198 62.630 L 84.500 64.237 86.792 62.332 L 89.085 60.427 86.590 54.964 C 81.781 44.433, 81.589 32.647, 86.082 23.840 C 87.346 21.362, 88 18.021, 88 14.040 L 88 8 60.750 8.207 C 39.389 8.369, 36.417 8.531, 47 8.957 M 34.300 15 C 34.300 18.025, 34.487 19.263, 34.716 17.750 C 34.945 16.238, 34.945 13.763, 34.716 12.250 C 34.487 10.738, 34.300 11.975, 34.300 15 M 70.500 14 C 70.840 14.550, 71.965 15, 73 15 C 74.035 15, 75.160 14.550, 75.500 14 C 75.862 13.415, 74.824 13, 73 13 C 71.176 13, 70.138 13.415, 70.500 14 M 79.418 14.352 C 78.607 16.467, 79.318 21.022, 80.500 21.281 C 81.727 21.550, 82.055 14.152, 80.850 13.407 C 80.375 13.113, 79.730 13.539, 79.418 14.352 M 46 22.278 C 46 29.334, 46.297 30.810, 48.011 32.278 C 50.450 34.366, 50.757 34.386, 52.571 32.571 C 54.679 30.464, 54.354 30.002, 50.750 29.985 C 48.540 29.974, 47.936 29.693, 48.861 29.107 C 49.609 28.633, 51.072 28.467, 52.111 28.739 C 53.150 29.011, 54 28.731, 54 28.117 C 54 27.502, 52.650 27, 51 27 C 48.535 27, 48.013 26.599, 48.070 24.750 C 48.137 22.603, 48.180 22.592, 49 24.500 C 49.607 25.914, 49.880 24.668, 49.930 20.250 C 49.993 14.643, 49.794 14, 48 14 C 46.161 14, 46 14.667, 46 22.278 M 48.079 17.583 C 48.127 18.748, 48.364 18.985, 48.683 18.188 C 48.972 17.466, 48.936 16.603, 48.604 16.271 C 48.272 15.939, 48.036 16.529, 48.079 17.583 M 69.739 26.250 C 69.503 26.938, 69.931 28.456, 70.688 29.625 C 71.923 31.529, 71.855 31.805, 70.032 32.281 C 68.913 32.574, 68.203 32.480, 68.455 32.073 C 68.706 31.666, 68.271 31.333, 67.488 31.333 C 66.610 31.333, 66.184 32.133, 66.379 33.417 C 66.614 34.971, 67.811 35.754, 71.097 36.500 C 73.519 37.050, 76.063 37.864, 76.750 38.309 C 79.047 39.796, 78.354 29.354, 76 27 C 73.755 24.755, 70.389 24.352, 69.739 26.250 M 123.882 30.882 C 120.286 34.479, 120 35.182, 120 40.432 C 120 50.543, 124.299 55, 134.050 55 C 138.550 55, 139.620 54.580, 142.521 51.679 C 148.410 45.790, 148.410 36.210, 142.521 30.321 C 139.534 27.334, 138.625 27, 133.482 27 C 128.174 27, 127.487 27.278, 123.882 30.882 M 151.448 35.351 C 155.328 42.470, 156 44.537, 156 49.351 L 156 55 159.500 55 L 163 55 163 49.404 C 163 44.640, 163.687 42.548, 167.615 35.341 L 172.231 26.874 167.946 27.187 C 163.819 27.488, 163.603 27.672, 162.081 32.179 C 161.211 34.753, 160.251 37.102, 159.947 37.399 C 159.643 37.696, 158.557 35.478, 157.534 32.470 L 155.675 27 151.285 27 L 146.895 27 151.448 35.351 M 177.615 29.088 C 169.976 35.097, 170.147 48.702, 177.920 53.294 C 182.074 55.747, 190.030 55.551, 193.385 52.912 C 201.024 46.903, 200.853 33.298, 193.080 28.706 C 188.926 26.253, 180.970 26.449, 177.615 29.088 M 215.321 28.189 C 214.123 28.768, 212.588 30.580, 211.911 32.215 C 210 36.828, 211.669 40.063, 217.508 43.066 C 220.253 44.477, 222.655 46.449, 222.848 47.448 C 223.160 49.069, 222.602 49.215, 217.664 48.805 C 212.499 48.377, 212.090 48.505, 211.534 50.719 C 210.615 54.383, 211.619 55, 218.503 55 C 226.552 55, 230.400 52.323, 230.400 46.723 C 230.400 42.341, 228.714 40.235, 223.374 37.946 C 221.090 36.967, 218.933 35.701, 218.582 35.133 C 217.499 33.380, 221.462 31.985, 224.805 32.944 C 227.603 33.746, 227.952 33.578, 228.854 30.988 C 229.636 28.745, 229.529 28.033, 228.339 27.577 C 225.932 26.653, 217.697 27.040, 215.321 28.189 M 233 30 C 233 32.762, 233.278 33, 236.500 33 L 240 33 240 44 L 240 55 244 55 L 248 55 248 44 L 248 33 251.500 33 C 254.722 33, 255 32.762, 255 30 L 255 27 244 27 L 233 27 233 30 M 261.526 28.250 C 260.489 31.399, 254 54.012, 254 54.477 C 254 54.765, 255.750 55, 257.889 55 C 261.541 55, 261.817 54.787, 262.434 51.500 C 263.030 48.321, 263.400 48, 266.468 48 C 269.441 48, 269.983 48.419, 271 51.500 C 272.066 54.730, 272.466 55, 276.185 55 C 279.255 55, 280.084 54.662, 279.669 53.580 C 279.369 52.799, 277.460 46.499, 275.425 39.580 L 271.727 27 266.832 27 C 263.802 27, 261.780 27.476, 261.526 28.250 M 278 30 C 278 32.762, 278.278 33, 281.500 33 L 285 33 285 44 L 285 55 289 55 L 293 55 293 44 L 293 33 296.500 33 C 299.722 33, 300 32.762, 300 30 L 300 27 289 27 L 278 27 278 30 M 304 41 L 304 55 313 55 L 322 55 322 52 C 322 49.030, 321.944 49, 316.500 49 C 311.300 49, 311 48.864, 311 46.500 C 311 44.167, 311.333 44, 316 44 C 320.889 44, 321 43.933, 321 41 C 321 38.067, 320.889 38, 316 38 C 311.333 38, 311 37.833, 311 35.500 C 311 33.167, 311.333 33, 316 33 C 320.889 33, 321 32.933, 321 30 L 321 27 312.500 27 L 304 27 304 41 M 74 32.167 C 74 32.625, 74.675 33, 75.500 33 C 76.325 33, 77 32.625, 77 32.167 C 77 31.708, 76.325 31.333, 75.500 31.333 C 74.675 31.333, 74 31.708, 74 32.167 M 130.825 33.038 C 129.904 33.576, 128.631 35.587, 127.997 37.508 C 125.797 44.175, 130.263 51.535, 134.977 49.012 C 139.660 46.506, 140.530 38.439, 136.545 34.455 C 133.838 31.747, 133.276 31.608, 130.825 33.038 M 182.039 34.189 C 179.681 36.719, 179.203 44.604, 181.250 47.208 C 183.412 49.959, 186.683 50.317, 188.949 48.051 C 193.163 43.837, 190.620 32, 185.500 32 C 184.718 32, 183.160 32.985, 182.039 34.189 M 265.560 36 C 265.170 37.925, 264.629 40.288, 264.358 41.250 C 263.978 42.600, 264.470 43, 266.512 43 C 268.977 43, 269.110 42.777, 268.450 39.750 C 268.060 37.962, 267.410 35.600, 267.005 34.500 C 266.386 32.817, 266.157 33.054, 265.560 36 M 45.784 38.738 C 48.689 38.941, 53.189 38.939, 55.784 38.734 C 58.378 38.528, 56 38.363, 50.500 38.365 C 45 38.368, 42.878 38.536, 45.784 38.738 M 64.330 44.276 C 63.610 45.440, 65.856 46.964, 68.323 46.985 C 71.037 47.007, 69.979 43.700, 67.208 43.496 C 65.947 43.404, 64.652 43.755, 64.330 44.276 M 73.324 44.285 C 73.036 44.751, 73.036 45.369, 73.325 45.658 C 74.084 46.417, 78 45.025, 78 43.995 C 78 42.897, 74.029 43.144, 73.324 44.285 M 64.480 51.032 C 64.092 51.660, 64.245 52.645, 64.820 53.220 C 66.164 54.564, 69.297 53.392, 68.750 51.749 C 68.194 50.078, 65.364 49.602, 64.480 51.032 M 67 58.059 C 67 58.641, 66.597 58.869, 66.105 58.565 C 65.044 57.909, 63.654 61.011, 64.613 61.893 C 64.977 62.227, 65.475 61.938, 65.720 61.250 C 65.966 60.563, 66.804 60, 67.583 60 C 68.362 60, 69 59.325, 69 58.500 C 69 57.675, 68.550 57, 68 57 C 67.450 57, 67 57.477, 67 58.059 M 80.079 58.583 C 80.127 59.748, 80.364 59.985, 80.683 59.188 C 80.972 58.466, 80.936 57.603, 80.604 57.271 C 80.272 56.939, 80.036 57.529, 80.079 58.583 M 82 57.941 C 82 58.459, 82.450 59.160, 83 59.500 C 83.550 59.840, 84 59.416, 84 58.559 C 84 57.702, 83.550 57, 83 57 C 82.450 57, 82 57.423, 82 57.941 M 74.166 60.060 C 74.350 61.316, 75.100 62.541, 75.834 62.783 C 76.741 63.082, 77.061 62.491, 76.834 60.940 C 76.650 59.684, 75.900 58.459, 75.166 58.217 C 74.259 57.918, 73.939 58.509, 74.166 60.060 M 77.250 68.115 C 73.841 70.298, 72.738 71.764, 75.750 70.108 C 78.044 68.847, 81.639 66.068, 81 66.049 C 80.725 66.040, 79.037 66.970, 77.250 68.115 M 68.079 68.583 C 68.127 69.748, 68.364 69.985, 68.683 69.188 C 68.972 68.466, 68.936 67.603, 68.604 67.271 C 68.272 66.939, 68.036 67.529, 68.079 68.583 M 49 71.430 C 49 71.705, 49.900 72.411, 51 73 C 52.100 73.589, 53 73.845, 53 73.570 C 53 73.295, 52.100 72.589, 51 72 C 49.900 71.411, 49 71.155, 49 71.430 M 64.441 76.555 C 62.577 78.049, 62.589 78.067, 64.750 77.020 C 65.987 76.420, 67 75.720, 67 75.465 C 67 74.700, 66.481 74.921, 64.441 76.555 M 58.441 77.445 C 59.509 78.300, 60.821 79, 61.358 79 C 62.628 79, 62.061 78.538, 59 77.080 C 56.643 75.958, 56.611 75.978, 58.441 77.445 M 29.079 83.583 C 29.127 84.748, 29.364 84.985, 29.683 84.188 C 29.972 83.466, 29.936 82.603, 29.604 82.271 C 29.272 81.939, 29.036 82.529, 29.079 83.583 M 85.079 84.583 C 85.127 85.748, 85.364 85.985, 85.683 85.188 C 85.972 84.466, 85.936 83.603, 85.604 83.271 C 85.272 82.939, 85.036 83.529, 85.079 84.583 M 43.079 86.583 C 43.127 87.748, 43.364 87.985, 43.683 87.188 C 43.972 86.466, 43.936 85.603, 43.604 85.271 C 43.272 84.939, 43.036 85.529, 43.079 86.583 M 48.079 86.583 C 48.127 87.748, 48.364 87.985, 48.683 87.188 C 48.972 86.466, 48.936 85.603, 48.604 85.271 C 48.272 84.939, 48.036 85.529, 48.079 86.583 M 66.079 86.583 C 66.127 87.748, 66.364 87.985, 66.683 87.188 C 66.972 86.466, 66.936 85.603, 66.604 85.271 C 66.272 84.939, 66.036 85.529, 66.079 86.583" stroke="none" fill="black" fill-rule="evenodd"/>
	<path fill-opacity="0.211" d="M 61 20.500 C 61 29.143, 60.650 33, 59.867 33 C 59.244 33, 57.894 33.969, 56.867 35.153 C 55.613 36.599, 54.995 36.845, 54.985 35.903 C 54.975 35.025, 54.695 34.890, 54.235 35.542 C 53.279 36.899, 48 37.277, 48 35.989 C 48 34.410, 42.276 34.840, 41.652 36.466 C 41.185 37.682, 42.825 37.986, 51.295 38.255 L 61.500 38.578 50.750 38.789 L 40 39 40 41.843 C 40 45.197, 36.839 54.791, 34.615 58.184 C 33.056 60.563, 33.072 60.577, 46.978 69.344 C 59.609 77.308, 61.116 78.009, 63.201 76.901 C 65.728 75.557, 87.031 62.049, 88.278 60.999 C 88.706 60.639, 87.592 57.229, 85.803 53.422 C 81.450 44.161, 81.288 34.768, 85.312 24.922 C 87.035 20.705, 88 16.486, 88 13.172 L 88 8 74.500 8 L 61 8 61 20.500 M 65.638 14.500 C 65.955 15.325, 66.391 16, 66.607 16 C 66.823 16, 67 15.325, 67 14.500 C 67 13.675, 66.564 13, 66.031 13 C 65.499 13, 65.322 13.675, 65.638 14.500 M 69 14 C 69.825 14.533, 71.400 14.969, 72.500 14.969 C 73.600 14.969, 75.175 14.533, 76 14 C 77.078 13.303, 76.093 13.031, 72.500 13.031 C 68.907 13.031, 67.922 13.303, 69 14 M 79.667 13.667 C 78.594 14.739, 78.900 20.500, 80.093 21.693 C 80.884 22.484, 80.714 23.507, 79.478 25.393 C 78.539 26.827, 77.987 28, 78.252 28 C 78.517 28, 79.960 26.148, 81.457 23.885 C 82.955 21.622, 83.624 20.114, 82.944 20.534 C 82.032 21.098, 81.877 20.625, 82.353 18.729 C 83.336 14.815, 81.665 11.668, 79.667 13.667 M 46.667 14.667 C 46.300 15.033, 46 18.843, 46 23.131 C 46 29.567, 46.306 31.078, 47.750 31.781 C 48.712 32.249, 50.063 32.546, 50.750 32.441 C 51.438 32.336, 52.450 32.194, 53 32.125 C 55.482 31.815, 53.669 30, 50.878 30 C 48.215 30, 47.939 29.779, 49 28.500 C 50.021 27.270, 49.948 27, 48.595 27 C 47.162 27, 47.032 26.143, 47.610 20.500 C 48.253 14.228, 48.093 13.240, 46.667 14.667 M 49.320 20 C 49.320 23.575, 49.502 25.038, 49.723 23.250 C 49.945 21.462, 49.945 18.538, 49.723 16.750 C 49.502 14.962, 49.320 16.425, 49.320 20 M 73.500 20 C 73.840 20.550, 74.568 21, 75.118 21 C 75.668 21, 75.840 20.550, 75.500 20 C 75.160 19.450, 74.432 19, 73.882 19 C 73.332 19, 73.160 19.450, 73.500 20 M 68.419 26.351 C 68.134 27.094, 68.035 28.331, 68.200 29.101 C 68.391 29.990, 67.680 30.471, 66.250 30.421 C 64.549 30.361, 64 30.900, 64 32.630 C 64 34.478, 64.820 35.140, 68.250 36.060 C 70.588 36.688, 73.571 37.623, 74.879 38.138 C 76.188 38.653, 77.499 38.834, 77.793 38.540 C 78.878 37.456, 77.953 29.577, 76.477 27.325 C 74.767 24.715, 69.300 24.054, 68.419 26.351 M 52 28 C 52 28.550, 52.477 29, 53.059 29 C 53.641 29, 53.840 28.550, 53.500 28 C 53.160 27.450, 52.684 27, 52.441 27 C 52.198 27, 52 27.450, 52 28 M 125.730 28.991 C 124.207 30.193, 122.294 32.465, 121.480 34.039 C 118.209 40.363, 120.659 50.738, 126.085 53.544 C 132.111 56.660, 142.146 54.332, 144.904 49.179 C 148.137 43.139, 147.003 34.230, 142.457 29.960 C 138.783 26.508, 129.554 25.973, 125.730 28.991 M 151.537 35.250 C 155.293 42.245, 155.969 44.375, 155.983 49.250 L 156 55 159.500 55 L 163 55 163 49.351 C 163 44.537, 163.672 42.470, 167.552 35.351 L 172.105 27 168.135 27 C 164.311 27, 164.101 27.175, 162.417 31.750 C 161.456 34.362, 160.371 36.850, 160.007 37.278 C 159.642 37.706, 158.498 35.568, 157.465 32.528 L 155.586 27 151.347 27 L 147.107 27 151.537 35.250 M 178.190 29.026 C 169.930 34.062, 170.087 48.079, 178.464 53.569 C 181.880 55.806, 191.079 55.131, 194.123 52.419 C 200.850 46.424, 200.479 34.668, 193.385 29.088 C 189.860 26.316, 182.683 26.286, 178.190 29.026 M 213.974 29.872 C 209.064 34.782, 210.632 39.767, 218.155 43.167 C 221.538 44.696, 223 45.944, 223 47.302 C 223 49.046, 222.437 49.201, 217.565 48.797 C 212.447 48.372, 212.094 48.491, 211.507 50.828 C 210.681 54.120, 212.229 54.966, 219.115 54.985 C 225.420 55.002, 229.337 52.778, 230.389 48.585 C 231.431 44.436, 229.440 41.257, 224.109 38.555 C 221.377 37.171, 218.877 35.611, 218.554 35.088 C 217.635 33.600, 220.128 32.519, 224.500 32.509 C 228.098 32.501, 228.500 32.249, 228.500 30 C 228.500 27.657, 228.138 27.481, 222.724 27.199 C 217.456 26.925, 216.686 27.161, 213.974 29.872 M 233 30 C 233 32.762, 233.278 33, 236.500 33 L 240 33 240 44 L 240 55 244 55 L 248 55 248 44 L 248 33 251.500 33 C 254.722 33, 255 32.762, 255 30 L 255 27 244 27 L 233 27 233 30 M 260.109 33.750 C 259.022 37.462, 257.367 43.200, 256.431 46.500 C 255.495 49.800, 254.505 53.093, 254.231 53.818 C 253.862 54.797, 254.718 55.055, 257.559 54.818 C 260.949 54.536, 261.481 54.124, 262.236 51.192 C 263.026 48.123, 263.350 47.907, 266.736 48.192 C 269.914 48.460, 270.492 48.919, 271.221 51.750 C 271.982 54.710, 272.401 55, 275.910 55 L 279.764 55 275.686 41 L 271.608 27 266.846 27 L 262.085 27 260.109 33.750 M 278 30 C 278 32.762, 278.278 33, 281.500 33 L 285 33 285 44 L 285 55 289 55 L 293 55 293 44 L 293 33 296.500 33 C 299.722 33, 300 32.762, 300 30 L 300 27 289 27 L 278 27 278 30 M 304 41 L 304 55 313 55 L 322 55 322 52 C 322 49.030, 321.944 49, 316.500 49 C 311.300 49, 311 48.864, 311 46.500 C 311 44.167, 311.333 44, 316 44 C 320.889 44, 321 43.933, 321 41 C 321 38.067, 320.889 38, 316 38 C 311.333 38, 311 37.833, 311 35.500 C 311 33.167, 311.333 33, 316 33 C 320.889 33, 321 32.933, 321 30 L 321 27 312.500 27 L 304 27 304 41 M 130.355 33.464 C 124.311 37.697, 128.168 51.668, 134.799 49.564 C 139.089 48.202, 140.395 39.043, 136.927 34.635 C 134.559 31.624, 133.302 31.400, 130.355 33.464 M 182 34 C 180.533 35.467, 180 37.333, 180 41 C 180 44.667, 180.533 46.533, 182 48 C 186.362 52.362, 191 48.755, 191 41 C 191 35.793, 188.682 32, 185.500 32 C 184.675 32, 183.100 32.900, 182 34 M 265.163 37.267 C 263.655 43.256, 263.592 43, 266.579 43 C 268.968 43, 269.107 42.760, 268.450 39.750 C 266.926 32.767, 266.397 32.367, 265.163 37.267 M 74.750 41.706 C 75.987 41.944, 78.013 41.944, 79.250 41.706 C 80.487 41.467, 79.475 41.272, 77 41.272 C 74.525 41.272, 73.513 41.467, 74.750 41.706 M 64.185 44.750 C 64.385 45.805, 65.605 46.626, 67.259 46.816 C 69.465 47.071, 70 46.729, 70 45.066 C 70 43.426, 69.366 43, 66.927 43 C 64.540 43, 63.927 43.391, 64.185 44.750 M 73 44.531 C 73 46.620, 75.695 47.498, 77.502 45.999 C 79.443 44.388, 78.489 43, 75.441 43 C 73.916 43, 73 43.574, 73 44.531 M 64.446 51.087 C 63.501 52.616, 65.552 54.386, 67.433 53.664 C 68.295 53.333, 69 52.374, 69 51.531 C 69 49.784, 65.465 49.439, 64.446 51.087 M 80 57.500 C 80 60.333, 80.381 61, 82 61 C 83.639 61, 84 60.333, 84 57.309 C 84 53.792, 83.925 53.709, 82.418 55.559 C 81.068 57.216, 80.917 57.244, 81.387 55.750 C 81.690 54.788, 81.501 54, 80.969 54 C 80.436 54, 80 55.575, 80 57.500 M 67.016 57.500 C 66.980 59.036, 66.766 59.179, 66.094 58.118 C 65.410 57.038, 65.066 57.218, 64.518 58.943 C 63.619 61.776, 64.161 62.249, 67.382 61.440 C 70.396 60.684, 70.558 60.120, 68.532 57.441 C 67.083 55.526, 67.063 55.527, 67.016 57.500 M 73.815 58.750 C 73.162 61.482, 74.005 64, 75.573 64 C 77.050 64, 77.452 61.342, 76.393 58.582 C 75.590 56.490, 74.336 56.571, 73.815 58.750 M 76.052 70.077 C 69.206 74.481, 63.525 78.630, 63.427 79.297 C 63.154 81.159, 71.341 81.277, 81.933 79.564 C 91.410 78.031, 94.520 77, 89.667 77 C 86.992 77, 86.114 75.665, 88.016 74.490 C 88.575 74.144, 88.848 73.555, 88.623 73.181 C 88.397 72.806, 90.907 72.435, 94.200 72.356 C 101.261 72.187, 102.585 71.280, 100.374 68.124 C 99.001 66.163, 91.206 61.928, 89.167 62.035 C 88.800 62.054, 82.899 65.673, 76.052 70.077 M 31.673 64.612 C 30.118 65.455, 27.889 66.329, 26.719 66.554 C 24.354 67.010, 20.296 70.629, 21.170 71.503 C 21.477 71.811, 24.152 72.335, 27.114 72.669 C 32.908 73.322, 36 74.493, 36 76.035 C 36 76.566, 35.325 77, 34.500 77 C 32.383 77, 32.622 78.984, 34.750 79.073 C 35.712 79.113, 38.862 79.482, 41.750 79.894 C 44.638 80.305, 47 80.321, 47 79.929 C 47 79.537, 48.125 78.934, 49.500 78.589 C 50.910 78.236, 52.034 77.207, 52.079 76.231 C 52.127 75.177, 52.356 74.991, 52.664 75.756 C 52.943 76.447, 53.695 76.751, 54.335 76.432 C 54.976 76.113, 54.626 76.560, 53.559 77.426 C 52.491 78.292, 51.227 79, 50.750 79 C 50.273 79, 50.160 79.450, 50.500 80 C 51.341 81.360, 62 81.298, 62 79.933 C 62 79.299, 61.136 79.140, 59.875 79.540 C 58.555 79.959, 57.985 79.833, 58.371 79.209 C 59.049 78.112, 49.676 71.667, 47.403 71.667 C 46.631 71.667, 46.229 71.438, 46.509 71.158 C 46.914 70.753, 35.488 62.892, 34.710 63.040 C 34.594 63.062, 33.228 63.770, 31.673 64.612 M 67 66.846 C 67 67.446, 66.325 67.678, 65.500 67.362 C 64.443 66.956, 64 67.445, 64 69.015 C 64 70.825, 64.267 71.024, 65.416 70.069 C 66.542 69.135, 66.910 69.264, 67.210 70.697 C 67.551 72.324, 67.703 72.291, 68.773 70.355 C 69.727 68.628, 69.670 67.971, 68.479 66.983 C 67.494 66.165, 67 66.120, 67 66.846 M 50.079 75.583 C 50.127 76.748, 50.364 76.985, 50.683 76.188 C 50.972 75.466, 50.936 74.603, 50.604 74.271 C 50.272 73.939, 50.036 74.529, 50.079 75.583" stroke="none" fill="black" fill-rule="evenodd"/>
	<path fill-opacity="0.258" d="M 60.921 21.750 C 60.878 29.313, 60.615 34.938, 60.338 34.250 C 60.060 33.563, 59.394 33, 58.858 33 C 58.321 33, 58.160 33.450, 58.500 34 C 58.840 34.550, 58.416 35, 57.559 35 C 56.702 35, 55.993 35.563, 55.985 36.250 C 55.974 37.083, 55.646 37, 55 36 C 54.467 35.175, 54.024 34.994, 54.015 35.598 C 54.007 36.202, 52.650 36.734, 51 36.781 C 49.350 36.828, 48 36.391, 48 35.811 C 48 35.154, 47.433 35.226, 46.500 36 C 45.464 36.860, 45 36.898, 45 36.122 C 45 35.505, 44.325 35, 43.500 35 C 42.675 35, 42 35.675, 42 36.500 C 42 37.721, 43.657 38, 50.917 38 C 57.114 38, 59.987 37.619, 60.338 36.750 C 60.615 36.063, 60.878 36.513, 60.921 37.750 C 60.998 39.945, 60.746 40, 50.500 40 L 40 40 40 42.989 C 40 44.633, 39.112 48.315, 38.027 51.170 C 36.570 55.006, 36.341 56.706, 37.150 57.681 C 37.878 58.557, 37.896 59, 37.206 59 C 36.634 59, 35.957 58.437, 35.700 57.750 C 35.389 56.918, 34.981 57.111, 34.480 58.328 C 33.517 60.663, 33.890 60.979, 48.748 70.401 L 60.995 78.167 74.180 69.834 C 81.432 65.250, 87.841 61.181, 88.424 60.792 C 89.137 60.315, 89.029 59.661, 88.095 58.792 C 87.232 57.989, 86.957 57.947, 87.370 58.681 C 88.457 60.618, 86.214 61.195, 85.074 59.271 C 84.165 57.736, 84.057 57.833, 84.263 60 C 84.443 61.901, 84.077 62.429, 82.737 62.203 C 81.767 62.040, 80.717 62.574, 80.404 63.390 C 80.072 64.256, 79.176 64.621, 78.253 64.267 C 77.239 63.878, 76.920 64.062, 77.364 64.780 C 78.084 65.946, 74.255 68.588, 73.271 67.605 C 72.965 67.298, 73.433 66.771, 74.312 66.434 C 75.735 65.888, 75.704 65.598, 74.032 63.804 C 72.999 62.695, 71.669 62.087, 71.077 62.453 C 70.484 62.819, 70 62.641, 70 62.059 C 70 61.477, 69.325 61, 68.500 61 C 67.675 61, 67 61.450, 67 62 C 67 62.550, 66.325 63, 65.500 63 C 63.485 63, 63.545 58.622, 65.584 56.930 C 67.547 55.301, 70.649 56.947, 70.206 59.383 C 70.024 60.384, 70.595 60.994, 71.706 60.985 C 73.094 60.973, 73.193 60.775, 72.143 60.110 C 71.104 59.451, 71.070 59.075, 72 58.500 C 72.930 57.925, 72.896 57.554, 71.857 56.911 C 71.111 56.450, 70.480 55.494, 70.455 54.786 C 70.430 54.079, 69.867 53.613, 69.205 53.750 C 65.116 54.599, 64 54.223, 64 52 C 64 50.900, 64.450 50, 65 50 C 65.550 50, 66 49.298, 66 48.441 C 66 47.584, 65.597 47.131, 65.105 47.435 C 64.028 48.101, 63.121 45.999, 63.731 44.250 C 63.970 43.562, 64.917 42.955, 65.833 42.900 C 66.839 42.840, 66.509 42.483, 65 42 C 63.347 41.471, 65.757 41.166, 72.110 41.100 L 81.720 41 82.288 35.497 C 82.601 32.470, 84.013 27.466, 85.428 24.376 C 88.450 17.774, 88.965 9.584, 86.418 8.607 C 85.548 8.273, 79.473 8, 72.918 8 L 61 8 60.921 21.750 M 64.664 13.750 C 64.414 14.162, 64.838 15.080, 65.605 15.789 C 66.746 16.844, 67 16.835, 67 15.740 C 67 14.821, 68.018 14.517, 70.250 14.772 C 72.037 14.975, 74.625 14.688, 76 14.134 C 78.062 13.303, 77.328 13.116, 71.809 13.063 C 68.129 13.029, 64.914 13.338, 64.664 13.750 M 78.837 15.459 C 77.952 17.400, 78.038 18.410, 79.245 20.251 C 80.612 22.338, 80.614 22.890, 79.258 25.477 C 77.891 28.086, 77.622 28.204, 76.511 26.684 C 75.101 24.756, 69.015 24.385, 67.278 26.122 C 66.661 26.739, 66.396 27.869, 66.689 28.633 C 67.056 29.589, 66.719 29.830, 65.611 29.404 C 64.319 28.908, 64 29.478, 64 32.279 C 64 35.670, 64.137 35.794, 68.647 36.470 C 71.203 36.853, 74.142 37.692, 75.177 38.333 C 77.820 39.970, 79.215 37.608, 78.606 32.528 C 78.206 29.181, 78.671 27.805, 81.565 23.776 C 85.534 18.252, 85.539 18.226, 83.056 15.250 C 80.686 12.409, 80.216 12.432, 78.837 15.459 M 46.667 14.667 C 46.300 15.033, 46 18.836, 46 23.117 C 46 31.579, 46.942 33.116, 51.584 32.229 C 54.868 31.601, 53.585 30, 49.797 30 L 46.712 30 47.380 22 C 48.039 14.090, 47.969 13.365, 46.667 14.667 M 49.320 20 C 49.320 23.575, 49.502 25.038, 49.723 23.250 C 49.945 21.462, 49.945 18.538, 49.723 16.750 C 49.502 14.962, 49.320 16.425, 49.320 20 M 82.141 19.637 C 80.940 22.317, 80.966 22.394, 82.545 20.848 C 83.473 19.940, 84.050 18.651, 83.828 17.985 C 83.606 17.318, 82.847 18.062, 82.141 19.637 M 69.525 18.959 C 69.171 19.533, 69.695 20.006, 70.691 20.014 C 71.686 20.021, 73.625 20.277, 75 20.582 C 76.823 20.987, 77.094 20.881, 76 20.190 C 73.311 18.491, 70.182 17.896, 69.525 18.959 M 126.299 28.960 C 122.246 31.430, 120 35.742, 120 41.049 C 120 49.579, 125.034 55, 132.954 55 C 141.536 55, 146.415 49.685, 146.329 40.430 C 146.275 34.636, 144.129 30.635, 139.901 28.449 C 135.992 26.427, 130.088 26.649, 126.299 28.960 M 148 27.462 C 148 27.782, 149.800 31.624, 152 36 C 155.223 42.411, 156 45.028, 156 49.478 L 156 55 159.500 55 L 163 55 163 48.700 C 163 45.235, 163.380 41.972, 163.844 41.450 C 164.308 40.927, 166.355 37.462, 168.393 33.750 L 172.098 27 168.129 27 C 164.256 27, 164.121 27.120, 162.504 31.988 C 161.593 34.732, 160.485 37.200, 160.043 37.473 C 159.601 37.746, 158.396 35.614, 157.364 32.735 C 155.597 27.804, 155.270 27.482, 151.744 27.190 C 149.685 27.019, 148 27.141, 148 27.462 M 178.190 28.966 C 170.716 33.657, 170.008 46.298, 176.877 52.419 C 180.155 55.340, 188.616 55.666, 192.810 53.034 C 200.284 48.343, 200.992 35.702, 194.123 29.581 C 190.845 26.660, 182.384 26.334, 178.190 28.966 M 214.747 28.984 C 209.092 33.433, 210.687 39.416, 218.546 43.235 C 221.342 44.593, 223 46.062, 223 47.180 C 223 49.487, 219.240 50.422, 215.572 49.027 C 212.288 47.779, 212.480 47.672, 211.627 51.228 C 211.066 53.570, 211.336 54.046, 213.541 54.600 C 214.953 54.954, 218.418 55.022, 221.241 54.751 C 227.141 54.184, 230 51.597, 230 46.823 C 230 42.366, 228.642 40.643, 223.075 38.035 C 220.284 36.728, 218 35.340, 218 34.952 C 218 33.083, 221.206 31.816, 224.412 32.417 C 227.347 32.968, 227.945 32.749, 228.530 30.906 C 229.431 28.067, 227.668 27.035, 221.885 27.015 C 218.778 27.005, 216.445 27.649, 214.747 28.984 M 234 29.937 C 234 32.519, 234.392 32.911, 237.250 33.187 L 240.500 33.500 240.784 44.250 L 241.068 55 244 55 L 246.932 55 247.216 44.250 L 247.500 33.500 251.250 33.190 C 254.663 32.907, 255 32.615, 255 29.940 L 255 27 244.500 27 L 234 27 234 29.937 M 260.109 33.750 C 259.022 37.462, 257.367 43.200, 256.431 46.500 C 255.495 49.800, 254.505 53.093, 254.231 53.818 C 253.861 54.799, 254.727 55.055, 257.612 54.818 C 261.046 54.537, 261.550 54.156, 262.005 51.500 C 262.475 48.759, 262.861 48.500, 266.472 48.500 C 270.074 48.500, 270.508 48.789, 271.357 51.750 C 272.196 54.675, 272.665 55, 276.048 55 L 279.806 55 276.375 43.750 C 274.488 37.563, 272.676 31.262, 272.347 29.750 C 271.796 27.212, 271.378 27, 266.917 27 L 262.085 27 260.109 33.750 M 279 29.937 C 279 32.519, 279.392 32.911, 282.250 33.187 L 285.500 33.500 285.784 44.250 L 286.068 55 289 55 L 291.932 55 292.216 44.250 L 292.500 33.500 296.250 33.190 C 299.663 32.907, 300 32.615, 300 29.940 L 300 27 289.500 27 L 279 27 279 29.937 M 304 41 L 304 55 313 55 L 322 55 322 52 C 322 49.030, 321.944 49, 316.500 49 C 311.056 49, 311 48.970, 311 46 C 311 43.067, 311.111 43, 316 43 C 320.667 43, 321 42.833, 321 40.500 C 321 38.167, 320.667 38, 316 38 C 311.333 38, 311 37.833, 311 35.500 C 311 33.167, 311.333 33, 316 33 C 320.889 33, 321 32.933, 321 30 L 321 27 312.500 27 L 304 27 304 41 M 129.405 34.105 C 126.484 37.333, 126.752 45.571, 129.861 48.088 C 132.863 50.520, 134.501 50.499, 137 48 C 139.803 45.197, 139.780 37.215, 136.961 34.189 C 134.394 31.433, 131.849 31.405, 129.405 34.105 M 182.825 33.038 C 180.049 34.658, 178.651 40.411, 180.022 44.567 C 182.279 51.405, 188.733 51.370, 190.997 44.508 C 192.390 40.290, 190.887 34.545, 187.986 32.992 C 185.719 31.779, 184.971 31.786, 182.825 33.038 M 265.694 34.587 C 265.394 35.639, 264.855 37.962, 264.495 39.750 C 263.887 42.774, 264.029 43, 266.532 43 C 269.099 43, 269.190 42.828, 268.520 39.250 C 267.532 33.980, 266.399 32.109, 265.694 34.587 M 70.753 44.490 C 71.121 46.415, 70.693 47.194, 68.865 47.926 C 67.490 48.477, 67.149 48.900, 68.050 48.937 C 70.076 49.019, 72 47.045, 72 44.883 C 72 43.939, 72.563 42.940, 73.250 42.662 C 73.938 42.385, 73.550 42.122, 72.389 42.079 C 70.665 42.014, 70.365 42.457, 70.753 44.490 M 82 46.941 C 82 48.009, 82.385 49.120, 82.856 49.411 C 83.326 49.702, 83.499 48.828, 83.239 47.470 C 82.675 44.519, 82 44.231, 82 46.941 M 50 49 C 50 49.550, 50.450 50, 51 50 C 51.550 50, 52 49.550, 52 49 C 52 48.450, 51.550 48, 51 48 C 50.450 48, 50 48.450, 50 49 M 57 49 C 57 49.550, 57.450 50, 58 50 C 58.550 50, 59 49.550, 59 49 C 59 48.450, 58.550 48, 58 48 C 57.450 48, 57 48.450, 57 49 M 73 51.500 C 73 52.325, 73.675 53, 74.500 53 C 75.325 53, 76 52.325, 76 51.500 C 76 50.675, 75.325 50, 74.500 50 C 73.675 50, 73 50.675, 73 51.500 M 85 54.941 C 85 55.459, 85.445 56.157, 85.989 56.493 C 86.555 56.843, 86.723 56.442, 86.382 55.552 C 85.717 53.820, 85 53.503, 85 54.941 M 75.500 56 C 75.160 56.550, 75.359 57, 75.941 57 C 76.523 57, 77 56.550, 77 56 C 77 55.450, 76.802 55, 76.559 55 C 76.316 55, 75.840 55.450, 75.500 56 M 43 58 C 43 58.550, 43.477 59, 44.059 59 C 44.641 59, 44.840 58.550, 44.500 58 C 44.160 57.450, 43.684 57, 43.441 57 C 43.198 57, 43 57.450, 43 58 M 50 58 C 50 58.550, 50.477 59, 51.059 59 C 51.641 59, 51.840 58.550, 51.500 58 C 51.160 57.450, 50.684 57, 50.441 57 C 50.198 57, 50 57.450, 50 58 M 77 62.059 C 77 62.641, 77.450 62.840, 78 62.500 C 78.550 62.160, 79 61.684, 79 61.441 C 79 61.198, 78.550 61, 78 61 C 77.450 61, 77 61.477, 77 62.059 M 32.250 64.360 C 29.925 65.512, 29.231 68.407, 31.016 69.510 C 31.575 69.856, 31.738 70.615, 31.377 71.199 C 30.997 71.814, 31.305 72.050, 32.111 71.760 C 32.875 71.486, 34.175 71.845, 35 72.559 C 36.291 73.677, 36.500 73.415, 36.500 70.679 C 36.500 68.520, 36.019 67.500, 35 67.500 C 34.175 67.500, 33.650 68.175, 33.833 69 C 34.017 69.825, 33.816 70.149, 33.388 69.721 C 31.824 68.158, 32.193 65.762, 34.072 65.271 C 35.132 64.994, 36 64.369, 36 63.883 C 36 62.805, 35.179 62.909, 32.250 64.360 M 87.274 64.006 C 87.392 64.834, 86.434 66.566, 85.146 67.854 C 83.456 69.544, 82.921 71.008, 83.228 73.099 C 83.515 75.057, 83.222 76, 82.327 76 C 81.597 76, 81 76.644, 81 77.430 C 81 78.217, 79.987 79.056, 78.750 79.294 C 76.779 79.674, 76.834 79.745, 79.191 79.864 C 80.671 79.939, 82.171 79.532, 82.525 78.959 C 82.879 78.387, 84.021 78.189, 85.064 78.520 C 86.107 78.851, 87.756 78.658, 88.730 78.091 C 90.113 77.286, 90.172 77.051, 89 77.015 C 88.175 76.990, 86.854 76.561, 86.064 76.061 C 84.857 75.297, 84.843 74.894, 85.972 73.534 C 86.989 72.308, 87.034 71.634, 86.158 70.758 C 84.739 69.339, 84.621 67.648, 86 68.500 C 86.550 68.840, 87 68.641, 87 68.059 C 87 67.477, 87.466 67, 88.035 67 C 88.748 67, 88.747 67.604, 88.032 68.939 C 86.818 71.209, 87.612 71.919, 91.977 72.472 C 95.628 72.934, 95.881 71.623, 92.560 69.448 C 91.146 68.521, 90.350 67.250, 90.667 66.425 C 90.993 65.576, 90.598 65, 89.690 65 C 88.852 65, 87.917 64.438, 87.612 63.750 C 87.262 62.960, 87.137 63.054, 87.274 64.006 M 93.250 64.662 C 91.681 65.295, 91.624 67.649, 93.155 68.595 C 93.800 68.995, 94.040 68.874, 93.698 68.321 C 93.363 67.778, 93.681 67.333, 94.407 67.333 C 95.162 67.333, 95.533 68.069, 95.276 69.054 C 94.746 71.080, 97.167 72.999, 97.812 71.064 C 98.151 70.047, 98.405 70.037, 99.009 71.015 C 99.431 71.698, 100.326 71.916, 100.998 71.501 C 101.846 70.977, 101.059 69.714, 98.428 67.373 C 96.343 65.518, 94.606 64.036, 94.568 64.079 C 94.531 64.122, 93.938 64.385, 93.250 64.662 M 37 66.031 C 37 66.564, 37.675 67, 38.500 67 C 39.325 67, 40 66.823, 40 66.607 C 40 66.391, 39.325 65.955, 38.500 65.638 C 37.675 65.322, 37 65.499, 37 66.031 M 65.856 65.769 C 64.203 66.108, 63.011 69.533, 63.763 71.788 C 64.431 73.793, 66.850 73.159, 68.575 70.526 C 69.933 68.454, 69.977 67.840, 68.848 66.743 C 68.106 66.023, 66.760 65.584, 65.856 65.769 M 50 67 C 50 67.550, 50.450 68, 51 68 C 51.550 68, 52 67.550, 52 67 C 52 66.450, 51.550 66, 51 66 C 50.450 66, 50 66.450, 50 67 M 57 67 C 57 67.550, 57.450 68, 58 68 C 58.550 68, 59 67.550, 59 67 C 59 66.450, 58.550 66, 58 66 C 57.450 66, 57 66.450, 57 67 M 80.980 67.524 C 80.284 68.362, 80.004 69.337, 80.357 69.691 C 80.711 70.044, 81 69.782, 81 69.108 C 81 68.434, 81.375 68.114, 81.833 68.397 C 82.292 68.680, 82.667 68.257, 82.667 67.456 C 82.667 65.638, 82.541 65.643, 80.980 67.524 M 22.452 69.053 C 20.982 70.677, 21.421 72.013, 23.417 71.985 C 24.012 71.976, 23.825 71.492, 23 70.909 C 21.216 69.647, 22.460 70.043, 26.254 71.945 C 29.158 73.400, 31.492 72.555, 28.971 70.961 C 28.026 70.363, 27.936 70.025, 28.719 70.015 C 29.389 70.007, 29.682 69.334, 29.369 68.519 C 28.639 66.618, 24.357 66.948, 22.452 69.053 M 38.447 72.916 C 38.478 75.521, 39.013 77.505, 39.751 77.750 C 40.545 78.015, 40.779 77.589, 40.394 76.584 C 40.043 75.671, 40.304 75, 41.010 75 C 41.747 75, 42.058 75.914, 41.793 77.301 C 41.456 79.068, 41.831 79.637, 43.414 79.756 C 44.861 79.865, 45.081 79.668, 44.152 79.094 C 43.424 78.644, 42.904 78.102, 42.996 77.888 C 43.565 76.568, 41.544 72, 40.392 72 C 39.626 72, 39 71.530, 39 70.956 C 39 70.382, 39.741 70.045, 40.646 70.206 C 41.552 70.368, 42.474 69.984, 42.695 69.353 C 42.932 68.678, 42.130 68.266, 40.746 68.352 C 38.644 68.483, 38.399 68.969, 38.447 72.916 M 57.500 71 C 57.160 71.550, 57.359 72, 57.941 72 C 58.523 72, 59 71.550, 59 71 C 59 70.450, 58.802 70, 58.559 70 C 58.316 70, 57.840 70.450, 57.500 71 M 78.397 72.593 C 78.801 73.644, 78.351 74.357, 77.073 74.691 C 73.950 75.508, 73.622 78, 76.638 78 C 78.436 78, 79.052 77.577, 78.676 76.599 C 78.350 75.748, 78.949 74.985, 80.200 74.658 C 82.068 74.170, 82.115 73.972, 80.702 72.559 C 78.692 70.550, 77.619 70.565, 78.397 72.593 M 73 74.059 C 73 74.641, 73.450 74.840, 74 74.500 C 74.550 74.160, 75 73.684, 75 73.441 C 75 73.198, 74.550 73, 74 73 C 73.450 73, 73 73.477, 73 74.059 M 86.507 73.989 C 86.157 74.555, 86.558 74.723, 87.448 74.382 C 89.180 73.717, 89.497 73, 88.059 73 C 87.541 73, 86.843 73.445, 86.507 73.989 M 35.250 76.718 C 33.277 77.426, 33.794 79, 36 79 C 37.100 79, 38 78.577, 38 78.059 C 38 76.779, 36.763 76.176, 35.250 76.718 M 66.583 76.866 C 66.152 77.563, 66.070 78.403, 66.400 78.733 C 67.295 79.628, 68.271 78.312, 67.787 76.862 C 67.449 75.846, 67.213 75.846, 66.583 76.866 M 68 80 C 67.099 80.582, 66.975 80.975, 67.691 80.985 C 68.346 80.993, 69.160 80.550, 69.500 80 C 70.267 78.758, 69.921 78.758, 68 80 M 71 80 C 71 80.550, 71.450 81, 72 81 C 72.550 81, 73 80.550, 73 80 C 73 79.450, 72.550 79, 72 79 C 71.450 79, 71 79.450, 71 80" stroke="none" fill="black" fill-rule="evenodd"/>
	<path fill-opacity="0.319" d="M 61 24.500 L 61 40 50.500 40 L 40 40 39.999 43.750 C 39.999 45.849, 38.662 50.324, 36.964 53.915 C 35.295 57.443, 34.283 60.644, 34.715 61.029 C 35.147 61.413, 41.282 65.417, 48.349 69.925 L 61.199 78.122 69.349 72.871 C 73.832 69.983, 77.950 67.208, 78.500 66.705 C 79.593 65.704, 70.495 70.426, 67.886 72.213 C 64 74.874, 63.424 72.962, 63.186 56.611 L 62.958 41 72.479 41 L 82 41 82 37.038 C 82 33.210, 85.330 22.494, 87.123 20.550 C 87.606 20.028, 88 17.215, 88 14.300 L 88 9 74.500 9 L 61 9 61 24.500 M 69.287 10.740 C 72.469 10.939, 77.419 10.937, 80.287 10.736 C 83.154 10.535, 80.550 10.372, 74.500 10.374 C 68.450 10.376, 66.104 10.541, 69.287 10.740 M 65.140 13.260 C 62.129 16.271, 64.672 19.824, 70.066 20.143 C 71.955 20.255, 74.287 20.735, 75.250 21.209 C 76.746 21.945, 77 21.566, 77 18.594 C 77 13.952, 78.477 13.205, 78.583 17.794 C 78.629 19.771, 79.214 21.571, 79.883 21.794 C 80.777 22.092, 80.668 22.858, 79.470 24.687 C 78.573 26.054, 78.064 27.397, 78.337 27.670 C 78.610 27.944, 80.428 25.800, 82.377 22.907 L 85.919 17.647 83.453 15.180 C 81.354 13.081, 79.893 12.670, 73.634 12.417 C 69.076 12.233, 65.847 12.553, 65.140 13.260 M 46.667 14.667 C 45.762 15.572, 45.846 29.224, 46.765 30.599 C 47.611 31.863, 54.177 32.095, 53.397 30.833 C 53.114 30.375, 51.492 30, 49.793 30 L 46.704 30 47.320 22 C 47.940 13.963, 47.894 13.440, 46.667 14.667 M 68.128 25.356 C 65.704 26.438, 62.653 31.977, 63.136 34.420 C 63.336 35.432, 64.606 36.990, 65.957 37.881 C 67.390 38.825, 68.095 38.979, 67.648 38.250 C 67.222 37.554, 67.352 37, 67.941 37 C 68.523 37, 69 37.418, 69 37.929 C 69 38.439, 71.138 38.777, 73.750 38.679 C 78.386 38.504, 78.508 38.418, 78.826 35.082 C 79.005 33.201, 78.417 30.033, 77.518 28.040 C 76.174 25.059, 75.368 24.424, 72.971 24.456 C 71.369 24.477, 69.190 24.882, 68.128 25.356 M 126.190 29.026 C 117.723 34.188, 118.236 49.271, 127.030 53.721 C 132.826 56.653, 141.879 54.069, 144.662 48.686 C 146.753 44.643, 146.750 37.273, 144.656 33.267 C 141.448 27.129, 132.625 25.102, 126.190 29.026 M 148.014 27.690 C 148.022 28.135, 149.822 31.791, 152.014 35.812 C 155.393 42.012, 156 44.028, 156 49.062 L 156 55 159.500 55 L 163 55 163 48.723 C 163 45.189, 163.577 41.583, 164.319 40.473 C 165.044 39.388, 167.073 35.913, 168.827 32.750 L 172.017 27 168.089 27 C 164.234 27, 164.129 27.098, 162.447 32.250 C 159.969 39.844, 159.912 39.857, 157.508 33.396 C 155.427 27.804, 155.125 27.484, 151.657 27.190 C 149.646 27.019, 148.006 27.244, 148.014 27.690 M 178.365 28.919 C 172.642 32.409, 170.545 42.545, 174.153 49.285 C 177 54.605, 186.853 56.606, 192.686 53.050 C 196.540 50.700, 197.840 48.445, 198.619 42.761 C 200.227 31.031, 188.286 22.870, 178.365 28.919 M 216 28.294 C 214.625 28.989, 212.913 30.783, 212.195 32.279 C 210.267 36.300, 212.364 39.917, 218.426 43.029 C 221.136 44.420, 223.534 46.101, 223.755 46.765 C 224.450 48.850, 219.712 50.291, 215.753 49.197 C 212.329 48.252, 212.180 48.321, 211.781 51.039 C 211.458 53.242, 211.820 53.984, 213.433 54.418 C 219.651 56.087, 228.015 54.009, 229.379 50.455 C 230.525 47.468, 230.015 43.158, 228.313 41.456 C 227.385 40.528, 224.685 38.937, 222.313 37.920 C 219.941 36.903, 218 35.410, 218 34.603 C 218 32.690, 221.291 31.685, 224.936 32.486 C 227.326 33.011, 227.947 32.742, 228.520 30.936 C 228.964 29.539, 228.724 28.440, 227.857 27.890 C 225.839 26.612, 218.856 26.849, 216 28.294 M 234 30 C 234 32.762, 234.278 33, 237.500 33 L 241 33 241 44 L 241 55 244 55 L 247 55 247 44 L 247 33 251 33 C 254.778 33, 255 32.833, 255 30 L 255 27 244.500 27 L 234 27 234 30 M 261.641 28.699 C 261.352 29.689, 259.718 35.450, 258.010 41.500 C 256.303 47.550, 254.716 53.063, 254.484 53.750 C 254.201 54.589, 255.193 55, 257.503 55 C 260.546 55, 261.039 54.625, 261.780 51.750 C 262.532 48.829, 263.028 48.469, 266.687 48.198 C 270.636 47.906, 270.778 48.003, 271.424 51.448 C 272.035 54.703, 272.379 55, 275.545 55 C 277.658 55, 278.989 54.514, 278.971 53.750 C 278.956 53.063, 277.256 46.875, 275.194 40 L 271.444 27.500 266.806 27.199 C 263.042 26.954, 262.068 27.237, 261.641 28.699 M 279 30 C 279 32.762, 279.278 33, 282.500 33 L 286 33 286 44 L 286 55 289 55 L 292 55 292 44 L 292 33 296 33 C 299.778 33, 300 32.833, 300 30 L 300 27 289.500 27 L 279 27 279 30 M 304 41 L 304 55 313 55 L 322 55 322 52 C 322 49.030, 321.944 49, 316.500 49 C 311.056 49, 311 48.970, 311 46 C 311 43.067, 311.111 43, 316 43 C 320.667 43, 321 42.833, 321 40.500 C 321 38.167, 320.667 38, 316 38 C 311.333 38, 311 37.833, 311 35.500 C 311 33.167, 311.333 33, 316 33 C 320.889 33, 321 32.933, 321 30 L 321 27 312.500 27 L 304 27 304 41 M 129.073 34.635 C 124.897 39.943, 127.806 50, 133.516 50 C 136.863 50, 139 46.407, 139 40.777 C 139 32.771, 133.309 29.249, 129.073 34.635 M 181.463 34.041 C 180.193 35.444, 179.615 37.621, 179.615 41 C 179.615 46.534, 181.882 50, 185.500 50 C 189.118 50, 191.385 46.534, 191.385 41 C 191.385 35.466, 189.118 32, 185.500 32 C 184.295 32, 182.479 32.919, 181.463 34.041 M 265.200 36.193 C 263.563 42.597, 263.640 43, 266.500 43 C 269.345 43, 269.533 41.745, 267.623 35.500 L 266.399 31.500 265.200 36.193 M 59.116 33.750 C 59.052 34.438, 58.325 35, 57.500 35 C 56.675 35, 55.993 35.563, 55.985 36.250 C 55.974 37.083, 55.646 37, 55 36 C 54.354 35, 54.026 34.917, 54.015 35.750 C 54.007 36.461, 52.742 37, 51.083 37 C 49.479 37, 47.940 36.438, 47.662 35.750 C 47.259 34.750, 47.142 34.750, 47.079 35.750 C 47.036 36.438, 46.298 37, 45.441 37 C 44.584 37, 44.160 36.550, 44.500 36 C 44.840 35.450, 44.416 35, 43.559 35 C 42.702 35, 42 35.721, 42 36.603 C 42 37.974, 43.216 38.154, 50.417 37.853 C 55.047 37.659, 59.136 37.198, 59.506 36.828 C 59.875 36.459, 59.964 35.334, 59.704 34.328 C 59.445 33.323, 59.180 33.063, 59.116 33.750 M 43.437 43.102 C 43.072 43.692, 43.341 44.698, 44.034 45.337 C 45.020 46.247, 45.160 46.119, 44.679 44.750 C 44.266 43.578, 44.568 43, 45.590 43 C 46.431 43, 46.840 43.450, 46.500 44 C 46.160 44.550, 46.509 45, 47.274 45 C 48.040 45, 48.667 44.417, 48.667 43.704 C 48.667 42.115, 44.354 41.618, 43.437 43.102 M 50 43.452 C 50 44.239, 50.450 45.160, 51 45.500 C 51.550 45.840, 52 45.416, 52 44.559 C 52 43.702, 52.477 43, 53.059 43 C 53.641 43, 53.840 43.450, 53.500 44 C 53.160 44.550, 53.610 45, 54.500 45 C 55.390 45, 55.840 44.550, 55.500 44 C 55.160 43.450, 55.610 43, 56.500 43 C 57.390 43, 57.840 43.450, 57.500 44 C 57.160 44.550, 57.396 45, 58.024 45 C 58.653 45, 58.980 44.438, 58.751 43.750 C 58.137 41.901, 50 41.625, 50 43.452 M 43 49 C 43 49.550, 43.450 50, 44 50 C 44.550 50, 45 49.550, 45 49 C 45 48.450, 44.550 48, 44 48 C 43.450 48, 43 48.450, 43 49 M 46 49 C 46 49.550, 46.423 50, 46.941 50 C 47.459 50, 48.160 49.550, 48.500 49 C 48.840 48.450, 48.416 48, 47.559 48 C 46.702 48, 46 48.450, 46 49 M 50 49 C 50 49.550, 50.450 50, 51 50 C 51.550 50, 52 49.550, 52 49 C 52 48.450, 51.550 48, 51 48 C 50.450 48, 50 48.450, 50 49 M 53.500 49 C 53.840 49.550, 54.541 50, 55.059 50 C 55.577 50, 56 49.550, 56 49 C 56 48.450, 55.298 48, 54.441 48 C 53.584 48, 53.160 48.450, 53.500 49 M 57 49 C 57 49.550, 57.450 50, 58 50 C 58.550 50, 59 49.550, 59 49 C 59 48.450, 58.550 48, 58 48 C 57.450 48, 57 48.450, 57 49 M 39.583 52.866 C 39.152 53.563, 39.070 54.403, 39.400 54.733 C 40.295 55.628, 41.271 54.312, 40.787 52.862 C 40.449 51.846, 40.213 51.846, 39.583 52.866 M 46.469 53.050 C 45.519 54.588, 46.820 55.580, 48.104 54.296 C 48.822 53.578, 48.839 53.019, 48.156 52.597 C 47.596 52.251, 46.837 52.455, 46.469 53.050 M 50 53.441 C 50 54.298, 50.450 55, 51 55 C 51.550 55, 52 54.577, 52 54.059 C 52 53.541, 51.550 52.840, 51 52.500 C 50.450 52.160, 50 52.584, 50 53.441 M 53.553 52.915 C 53.231 53.436, 53.394 54.125, 53.915 54.447 C 54.436 54.769, 55.125 54.606, 55.447 54.085 C 55.769 53.564, 55.606 52.875, 55.085 52.553 C 54.564 52.231, 53.875 52.394, 53.553 52.915 M 43 54 C 43 54.550, 43.450 55, 44 55 C 44.550 55, 45 54.550, 45 54 C 45 53.450, 44.550 53, 44 53 C 43.450 53, 43 53.450, 43 54 M 57 54 C 57 54.550, 57.450 55, 58 55 C 58.550 55, 59 54.550, 59 54 C 59 53.450, 58.550 53, 58 53 C 57.450 53, 57 53.450, 57 54 M 36 58 C 36 58.550, 36.450 59, 37 59 C 37.550 59, 38 58.550, 38 58 C 38 57.450, 37.550 57, 37 57 C 36.450 57, 36 57.450, 36 58 M 39.500 58 C 39.160 58.550, 39.359 59, 39.941 59 C 40.523 59, 41 58.550, 41 58 C 41 57.450, 40.802 57, 40.559 57 C 40.316 57, 39.840 57.450, 39.500 58 M 43 58 C 43 58.550, 43.450 59, 44 59 C 44.550 59, 45 58.550, 45 58 C 45 57.450, 44.550 57, 44 57 C 43.450 57, 43 57.450, 43 58 M 46.500 58 C 46.160 58.550, 46.610 59, 47.500 59 C 48.390 59, 48.840 58.550, 48.500 58 C 48.160 57.450, 47.710 57, 47.500 57 C 47.290 57, 46.840 57.450, 46.500 58 M 50 58 C 50 58.550, 50.450 59, 51 59 C 51.550 59, 52 58.550, 52 58 C 52 57.450, 51.550 57, 51 57 C 50.450 57, 50 57.450, 50 58 M 53.500 58 C 53.160 58.550, 53.610 59, 54.500 59 C 55.390 59, 55.840 58.550, 55.500 58 C 55.160 57.450, 54.710 57, 54.500 57 C 54.290 57, 53.840 57.450, 53.500 58 M 57 58 C 57 58.550, 57.450 59, 58 59 C 58.550 59, 59 58.550, 59 58 C 59 57.450, 58.550 57, 58 57 C 57.450 57, 57 57.450, 57 58 M 40 62.441 C 40 63.298, 40.450 64, 41 64 C 41.550 64, 42 63.577, 42 63.059 C 42 62.541, 41.550 61.840, 41 61.500 C 40.450 61.160, 40 61.584, 40 62.441 M 43.583 61.866 C 43.152 62.563, 43.070 63.403, 43.400 63.733 C 44.295 64.628, 45.271 63.312, 44.787 61.862 C 44.449 60.846, 44.213 60.846, 43.583 61.866 M 46.597 61.844 C 46.251 62.404, 46.455 63.163, 47.050 63.531 C 48.588 64.481, 49.580 63.180, 48.296 61.896 C 47.578 61.178, 47.019 61.161, 46.597 61.844 M 50.583 61.866 C 50.152 62.563, 50.070 63.403, 50.400 63.733 C 51.295 64.628, 52.271 63.312, 51.787 61.862 C 51.449 60.846, 51.213 60.846, 50.583 61.866 M 53.597 61.844 C 53.251 62.404, 53.455 63.163, 54.050 63.531 C 55.588 64.481, 56.580 63.180, 55.296 61.896 C 54.578 61.178, 54.019 61.161, 53.597 61.844 M 57.583 61.866 C 57.152 62.563, 57.070 63.403, 57.400 63.733 C 58.295 64.628, 59.271 63.312, 58.787 61.862 C 58.449 60.846, 58.213 60.846, 57.583 61.866 M 50 67 C 50 67.550, 50.450 68, 51 68 C 51.550 68, 52 67.550, 52 67 C 52 66.450, 51.550 66, 51 66 C 50.450 66, 50 66.450, 50 67 M 53.500 67 C 53.840 67.550, 54.541 68, 55.059 68 C 55.577 68, 56 67.550, 56 67 C 56 66.450, 55.298 66, 54.441 66 C 53.584 66, 53.160 66.450, 53.500 67 M 57 67 C 57 67.550, 57.450 68, 58 68 C 58.550 68, 59 67.550, 59 67 C 59 66.450, 58.550 66, 58 66 C 57.450 66, 57 66.450, 57 67 M 57 71 C 57 71.550, 57.450 72, 58 72 C 58.550 72, 59 71.550, 59 71 C 59 70.450, 58.550 70, 58 70 C 57.450 70, 57 70.450, 57 71 M 85.636 77.506 C 85.321 78.328, 85.472 79, 85.972 79 C 87.328 79, 88.170 77.223, 87.121 76.575 C 86.620 76.265, 85.952 76.684, 85.636 77.506" stroke="none" fill="black" fill-rule="evenodd"/>
	<path fill-opacity="1.000" d="M 61.119 24.250 L 61 40 50.250 40.211 L 39.500 40.422 49.750 40.746 L 60 41.070 60 58.035 C 60 67.366, 59.638 75, 59.196 75 C 58.753 75, 56.391 73.739, 53.946 72.197 C 47.314 68.016, 47 67.842, 47 68.351 C 47 68.726, 55.442 74.275, 60.528 77.244 C 61.093 77.574, 62.668 76.973, 64.028 75.909 C 65.388 74.844, 65.768 74.232, 64.872 74.547 C 62.701 75.312, 62.401 72.884, 62.456 54.973 L 62.500 40.500 66 40.666 L 69.500 40.832 66.099 39.062 L 62.698 37.293 62.599 27.731 C 62.514 19.523, 62.704 18.335, 63.942 19.335 C 65.111 20.280, 65.206 20.216, 64.442 19 C 63.924 18.175, 62.991 15.475, 62.369 13 C 61.374 9.043, 61.223 10.402, 61.119 24.250 M 46.667 15.667 C 46.300 16.033, 46.029 17.271, 46.063 18.417 C 46.122 20.332, 46.204 20.307, 47.085 18.105 C 48.064 15.657, 47.861 14.472, 46.667 15.667 M 77.030 18.316 C 76.970 19.944, 79.100 23, 80.285 22.985 C 81.122 22.974, 81.162 22.741, 80.415 22.235 C 79.818 21.831, 78.819 20.600, 78.195 19.500 C 77.571 18.400, 77.047 17.867, 77.030 18.316 M 72 21.965 C 72 23.084, 72.648 24, 73.441 24 C 75.832 24, 76.191 22.173, 74.028 21.015 C 72.299 20.090, 72 20.230, 72 21.965 M 46.079 22.583 C 46.127 23.748, 46.364 23.985, 46.683 23.188 C 46.972 22.466, 46.936 21.603, 46.604 21.271 C 46.272 20.939, 46.036 21.529, 46.079 22.583 M 84.459 23.067 C 84.096 23.653, 84.014 24.348, 84.276 24.610 C 84.538 24.872, 85.019 24.392, 85.345 23.543 C 86.021 21.781, 85.445 21.471, 84.459 23.067 M 46.118 27.128 C 45.958 30.689, 48.054 32.322, 51.121 31.024 C 53.398 30.061, 53.372 30.028, 50.515 30.259 C 47.930 30.468, 47.443 30.097, 46.883 27.500 C 46.260 24.608, 46.232 24.594, 46.118 27.128 M 59 34.607 C 59 35.583, 58.443 36, 57.583 35.670 C 56.803 35.371, 55.944 35.703, 55.674 36.407 C 55.333 37.297, 55.917 37.547, 57.591 37.227 C 59.121 36.935, 60 36.079, 60 34.883 C 60 33.848, 59.775 33, 59.500 33 C 59.225 33, 59 33.723, 59 34.607 M 81 35.640 C 81 36.542, 80.213 37.877, 79.250 38.608 C 77.629 39.838, 77.666 39.939, 79.750 39.968 C 81.590 39.994, 82 39.454, 82 37 C 82 35.350, 81.775 34, 81.500 34 C 81.225 34, 81 34.738, 81 35.640 M 50.269 37.693 C 51.242 37.947, 52.592 37.930, 53.269 37.656 C 53.946 37.382, 53.150 37.175, 51.500 37.195 C 49.850 37.215, 49.296 37.439, 50.269 37.693 M 40.500 64.518 C 41.600 65.414, 43.400 66.588, 44.500 67.128 L 46.500 68.110 44.500 66.482 C 43.400 65.586, 41.600 64.412, 40.500 63.872 L 38.500 62.890 40.500 64.518" stroke="none" fill="black" fill-rule="evenodd"/>
</svg>