<svg xmlns="http://www.w3.org/2000/svg" viewBox="0 0 820 380" preserveAspectRatio="xMidYMid meet">
  <defs><marker id="arrowhead" viewBox="0 0 10 10" refX="9" refY="5" markerWidth="8" markerHeight="8" orient="auto"><path d="M 0 0 L 10 5 L 0 10 z" fill="currentColor"/></marker></defs>
  <rect width="820" height="380" fill="#fbf9f2"/>
  <text x="410" y="22" font-family='"Inter", sans-serif' font-size="16" font-weight="700" text-anchor="middle" dominant-baseline="hanging" fill="#1a1a1a">Risk Register Summary, Top Risks by Severity</text>
  <rect x="60" y="90" width="700" height="28" fill="white" stroke="#e5e3df" stroke-width="1.5" rx="4" ry="4" opacity="1"/>
  <rect x="60" y="90" width="6" height="28" fill="#c92a2a" stroke="none" stroke-width="1.5" rx="0" ry="0" opacity="1"/>
  <text x="78" y="104" font-family='"JetBrains Mono", monospace' font-size="10" font-weight="700" text-anchor="start" dominant-baseline="middle" fill="#6b6b6b">R-04</text>
  <text x="130" y="104" font-family='"Inter", sans-serif' font-size="11" font-weight="400" text-anchor="start" dominant-baseline="middle" fill="#1a1a1a">Field staff non-mobilisation</text>
  <rect x="640" y="94" width="110" height="20" fill="#c92a2a22" stroke="#c92a2a" stroke-width="1" rx="10" ry="10" opacity="1"/>
  <text x="695" y="104" font-family='"Inter", sans-serif' font-size="9" font-weight="600" text-anchor="middle" dominant-baseline="middle" fill="#c92a2a">High (16)</text>
  <rect x="60" y="122" width="700" height="28" fill="white" stroke="#e5e3df" stroke-width="1.5" rx="4" ry="4" opacity="1"/>
  <rect x="60" y="122" width="6" height="28" fill="#c92a2a" stroke="none" stroke-width="1.5" rx="0" ry="0" opacity="1"/>
  <text x="78" y="136" font-family='"JetBrains Mono", monospace' font-size="10" font-weight="700" text-anchor="start" dominant-baseline="middle" fill="#6b6b6b">R-09</text>
  <text x="130" y="136" font-family='"Inter", sans-serif' font-size="11" font-weight="400" text-anchor="start" dominant-baseline="middle" fill="#1a1a1a">Device procurement delay</text>
  <rect x="640" y="126" width="110" height="20" fill="#c92a2a22" stroke="#c92a2a" stroke-width="1" rx="10" ry="10" opacity="1"/>
  <text x="695" y="136" font-family='"Inter", sans-serif' font-size="9" font-weight="600" text-anchor="middle" dominant-baseline="middle" fill="#c92a2a">High (15)</text>
  <rect x="60" y="154" width="700" height="28" fill="white" stroke="#e5e3df" stroke-width="1.5" rx="4" ry="4" opacity="1"/>
  <rect x="60" y="154" width="6" height="28" fill="#b58105" stroke="none" stroke-width="1.5" rx="0" ry="0" opacity="1"/>
  <text x="78" y="168" font-family='"JetBrains Mono", monospace' font-size="10" font-weight="700" text-anchor="start" dominant-baseline="middle" fill="#6b6b6b">R-12</text>
  <text x="130" y="168" font-family='"Inter", sans-serif' font-size="11" font-weight="400" text-anchor="start" dominant-baseline="middle" fill="#1a1a1a">Power/connectivity loss in field</text>
  <rect x="640" y="158" width="110" height="20" fill="#b5810522" stroke="#b58105" stroke-width="1" rx="10" ry="10" opacity="1"/>
  <text x="695" y="168" font-family='"Inter", sans-serif' font-size="9" font-weight="600" text-anchor="middle" dominant-baseline="middle" fill="#b58105">Medium (12)</text>
  <rect x="60" y="186" width="700" height="28" fill="white" stroke="#e5e3df" stroke-width="1.5" rx="4" ry="4" opacity="1"/>
  <rect x="60" y="186" width="6" height="28" fill="#b58105" stroke="none" stroke-width="1.5" rx="0" ry="0" opacity="1"/>
  <text x="78" y="200" font-family='"JetBrains Mono", monospace' font-size="10" font-weight="700" text-anchor="start" dominant-baseline="middle" fill="#6b6b6b">R-16</text>
  <text x="130" y="200" font-family='"Inter", sans-serif' font-size="11" font-weight="400" text-anchor="start" dominant-baseline="middle" fill="#1a1a1a">Security breach / data leakage</text>
  <rect x="640" y="190" width="110" height="20" fill="#b5810522" stroke="#b58105" stroke-width="1" rx="10" ry="10" opacity="1"/>
  <text x="695" y="200" font-family='"Inter", sans-serif' font-size="9" font-weight="600" text-anchor="middle" dominant-baseline="middle" fill="#b58105">Medium (10)</text>
  <rect x="60" y="218" width="700" height="28" fill="white" stroke="#e5e3df" stroke-width="1.5" rx="4" ry="4" opacity="1"/>
  <rect x="60" y="218" width="6" height="28" fill="#b58105" stroke="none" stroke-width="1.5" rx="0" ry="0" opacity="1"/>
  <text x="78" y="232" font-family='"JetBrains Mono", monospace' font-size="10" font-weight="700" text-anchor="start" dominant-baseline="middle" fill="#6b6b6b">R-08</text>
  <text x="130" y="232" font-family='"Inter", sans-serif' font-size="11" font-weight="400" text-anchor="start" dominant-baseline="middle" fill="#1a1a1a">Community resistance</text>
  <rect x="640" y="222" width="110" height="20" fill="#b5810522" stroke="#b58105" stroke-width="1" rx="10" ry="10" opacity="1"/>
  <text x="695" y="232" font-family='"Inter", sans-serif' font-size="9" font-weight="600" text-anchor="middle" dominant-baseline="middle" fill="#b58105">Medium (9)</text>
  <rect x="60" y="250" width="700" height="28" fill="white" stroke="#e5e3df" stroke-width="1.5" rx="4" ry="4" opacity="1"/>
  <rect x="60" y="250" width="6" height="28" fill="#b58105" stroke="none" stroke-width="1.5" rx="0" ry="0" opacity="1"/>
  <text x="78" y="264" font-family='"JetBrains Mono", monospace' font-size="10" font-weight="700" text-anchor="start" dominant-baseline="middle" fill="#6b6b6b">R-14</text>
  <text x="130" y="264" font-family='"Inter", sans-serif' font-size="11" font-weight="400" text-anchor="start" dominant-baseline="middle" fill="#1a1a1a">NIN verification API downtime</text>
  <rect x="640" y="254" width="110" height="20" fill="#b5810522" stroke="#b58105" stroke-width="1" rx="10" ry="10" opacity="1"/>
  <text x="695" y="264" font-family='"Inter", sans-serif' font-size="9" font-weight="600" text-anchor="middle" dominant-baseline="middle" fill="#b58105">Medium (8)</text>
  <rect x="60" y="282" width="700" height="28" fill="white" stroke="#e5e3df" stroke-width="1.5" rx="4" ry="4" opacity="1"/>
  <rect x="60" y="282" width="6" height="28" fill="#2b8a3e" stroke="none" stroke-width="1.5" rx="0" ry="0" opacity="1"/>
  <text x="78" y="296" font-family='"JetBrains Mono", monospace' font-size="10" font-weight="700" text-anchor="start" dominant-baseline="middle" fill="#6b6b6b">R-05</text>
  <text x="130" y="296" font-family='"Inter", sans-serif' font-size="11" font-weight="400" text-anchor="start" dominant-baseline="middle" fill="#1a1a1a">Budget delay or shortfall</text>
  <rect x="640" y="286" width="110" height="20" fill="#2b8a3e22" stroke="#2b8a3e" stroke-width="1" rx="10" ry="10" opacity="1"/>
  <text x="695" y="296" font-family='"Inter", sans-serif' font-size="9" font-weight="600" text-anchor="middle" dominant-baseline="middle" fill="#2b8a3e">Low (mitigated) (6)</text>
  <rect x="60" y="314" width="700" height="28" fill="white" stroke="#e5e3df" stroke-width="1.5" rx="4" ry="4" opacity="1"/>
  <rect x="60" y="314" width="6" height="28" fill="#2b8a3e" stroke="none" stroke-width="1.5" rx="0" ry="0" opacity="1"/>
  <text x="78" y="328" font-family='"JetBrains Mono", monospace' font-size="10" font-weight="700" text-anchor="start" dominant-baseline="middle" fill="#6b6b6b">R-19</text>
  <text x="130" y="328" font-family='"Inter", sans-serif' font-size="11" font-weight="400" text-anchor="start" dominant-baseline="middle" fill="#1a1a1a">Political-environment shifts</text>
  <rect x="640" y="318" width="110" height="20" fill="#2b8a3e22" stroke="#2b8a3e" stroke-width="1" rx="10" ry="10" opacity="1"/>
  <text x="695" y="328" font-family='"Inter", sans-serif' font-size="9" font-weight="600" text-anchor="middle" dominant-baseline="middle" fill="#2b8a3e">Low (monitored) (4)</text>
</svg>
