<svg xmlns="http://www.w3.org/2000/svg" viewBox="0 0 820 480" preserveAspectRatio="xMidYMid meet">
  <defs><marker id="arrowhead" viewBox="0 0 10 10" refX="9" refY="5" markerWidth="8" markerHeight="8" orient="auto"><path d="M 0 0 L 10 5 L 0 10 z" fill="currentColor"/></marker></defs>
  <rect width="820" height="480" fill="#fbf9f2"/>
  <text x="410" y="22" font-family='"Inter", sans-serif' font-size="16" font-weight="700" text-anchor="middle" dominant-baseline="hanging" fill="#1a1a1a">Layer 2: Fraud-Detection Decision Matrix</text>
  <rect x="60" y="80" width="700" height="50" fill="white" stroke="#c92a2a" stroke-width="1.5" rx="6" ry="6" opacity="1"/>
  <rect x="72" y="90" width="12" height="30" fill="#c92a2a" stroke="none" stroke-width="1.5" rx="6" ry="6" opacity="1"/>
  <text x="96" y="98" font-family='"Inter", sans-serif' font-size="12" font-weight="700" text-anchor="start" dominant-baseline="hanging" fill="#c92a2a">GPS Cluster</text>
  <text x="96" y="118" font-family='"Inter", sans-serif' font-size="11" font-weight="400" text-anchor="start" dominant-baseline="hanging" fill="#1a1a1a">&gt;15 submissions within 100m radius</text>
  <rect x="620" y="94" width="120" height="22" fill="#c92a2a22" stroke="#c92a2a" stroke-width="1" rx="11" ry="11" opacity="1"/>
  <text x="680" y="105" font-family='"Inter", sans-serif' font-size="10" font-weight="700" text-anchor="middle" dominant-baseline="middle" fill="#c92a2a">High</text>
  <rect x="60" y="140" width="700" height="50" fill="white" stroke="#c92a2a" stroke-width="1.5" rx="6" ry="6" opacity="1"/>
  <rect x="72" y="150" width="12" height="30" fill="#c92a2a" stroke="none" stroke-width="1.5" rx="6" ry="6" opacity="1"/>
  <text x="96" y="158" font-family='"Inter", sans-serif' font-size="12" font-weight="700" text-anchor="start" dominant-baseline="hanging" fill="#c92a2a">Speed-Run</text>
  <text x="96" y="178" font-family='"Inter", sans-serif' font-size="11" font-weight="400" text-anchor="start" dominant-baseline="hanging" fill="#1a1a1a">Submission &lt;90 seconds (median ≈ 9 min)</text>
  <rect x="620" y="154" width="120" height="22" fill="#c92a2a22" stroke="#c92a2a" stroke-width="1" rx="11" ry="11" opacity="1"/>
  <text x="680" y="165" font-family='"Inter", sans-serif' font-size="10" font-weight="700" text-anchor="middle" dominant-baseline="middle" fill="#c92a2a">High</text>
  <rect x="60" y="200" width="700" height="50" fill="white" stroke="#b58105" stroke-width="1.5" rx="6" ry="6" opacity="1"/>
  <rect x="72" y="210" width="12" height="30" fill="#b58105" stroke="none" stroke-width="1.5" rx="6" ry="6" opacity="1"/>
  <text x="96" y="218" font-family='"Inter", sans-serif' font-size="12" font-weight="700" text-anchor="start" dominant-baseline="hanging" fill="#b58105">Pattern Repeat</text>
  <text x="96" y="238" font-family='"Inter", sans-serif' font-size="11" font-weight="400" text-anchor="start" dominant-baseline="hanging" fill="#1a1a1a">Identical answer string across submissions</text>
  <rect x="620" y="214" width="120" height="22" fill="#b5810522" stroke="#b58105" stroke-width="1" rx="11" ry="11" opacity="1"/>
  <text x="680" y="225" font-family='"Inter", sans-serif' font-size="10" font-weight="700" text-anchor="middle" dominant-baseline="middle" fill="#b58105">Medium</text>
  <rect x="60" y="260" width="700" height="50" fill="white" stroke="#b58105" stroke-width="1.5" rx="6" ry="6" opacity="1"/>
  <rect x="72" y="270" width="12" height="30" fill="#b58105" stroke="none" stroke-width="1.5" rx="6" ry="6" opacity="1"/>
  <text x="96" y="278" font-family='"Inter", sans-serif' font-size="12" font-weight="700" text-anchor="start" dominant-baseline="hanging" fill="#b58105">Off-LGA Submission</text>
  <text x="96" y="298" font-family='"Inter", sans-serif' font-size="11" font-weight="400" text-anchor="start" dominant-baseline="hanging" fill="#1a1a1a">GPS outside enumerator-assigned LGA</text>
  <rect x="620" y="274" width="120" height="22" fill="#b5810522" stroke="#b58105" stroke-width="1" rx="11" ry="11" opacity="1"/>
  <text x="680" y="285" font-family='"Inter", sans-serif' font-size="10" font-weight="700" text-anchor="middle" dominant-baseline="middle" fill="#b58105">Medium</text>
  <rect x="60" y="320" width="700" height="50" fill="white" stroke="#9C1E23" stroke-width="1.5" rx="6" ry="6" opacity="1"/>
  <rect x="72" y="330" width="12" height="30" fill="#9C1E23" stroke="none" stroke-width="1.5" rx="6" ry="6" opacity="1"/>
  <text x="96" y="338" font-family='"Inter", sans-serif' font-size="12" font-weight="700" text-anchor="start" dominant-baseline="hanging" fill="#9C1E23">NIN Re-use Attempt</text>
  <text x="96" y="358" font-family='"Inter", sans-serif' font-size="11" font-weight="400" text-anchor="start" dominant-baseline="hanging" fill="#1a1a1a">NIN submitted twice</text>
  <rect x="620" y="334" width="120" height="22" fill="#9C1E2322" stroke="#9C1E23" stroke-width="1" rx="11" ry="11" opacity="1"/>
  <text x="680" y="345" font-family='"Inter", sans-serif' font-size="10" font-weight="700" text-anchor="middle" dominant-baseline="middle" fill="#9C1E23">Auto-reject</text>
  <rect x="60" y="380" width="700" height="50" fill="white" stroke="#2b8a3e" stroke-width="1.5" rx="6" ry="6" opacity="1"/>
  <rect x="72" y="390" width="12" height="30" fill="#2b8a3e" stroke="none" stroke-width="1.5" rx="6" ry="6" opacity="1"/>
  <text x="96" y="398" font-family='"Inter", sans-serif' font-size="12" font-weight="700" text-anchor="start" dominant-baseline="hanging" fill="#2b8a3e">Phone Re-use</text>
  <text x="96" y="418" font-family='"Inter", sans-serif' font-size="11" font-weight="400" text-anchor="start" dominant-baseline="hanging" fill="#1a1a1a">Phone submitted &gt;3 times</text>
  <rect x="620" y="394" width="120" height="22" fill="#2b8a3e22" stroke="#2b8a3e" stroke-width="1" rx="11" ry="11" opacity="1"/>
  <text x="680" y="405" font-family='"Inter", sans-serif' font-size="10" font-weight="700" text-anchor="middle" dominant-baseline="middle" fill="#2b8a3e">Low (review)</text>
</svg>
