<svg xmlns="http://www.w3.org/2000/svg" viewBox="0 0 630 580" preserveAspectRatio="xMidYMid meet">
  <rect width="630" height="580" fill="#fbf9f2"/>
  <text x="30" y="38" font-family='"Inter", sans-serif' font-size="14" font-weight="600" fill="#1a1a1a">ZONE COMPARISON, KEY INDICATORS</text>
  <text x="142" y="77" font-family='"Inter", sans-serif' font-size="11" fill="#1a1a1a" text-anchor="end">Zone 1 (Ibadan Metro)</text>
  <rect x="150" y="64" width="349.6" height="18" fill="#9C1E23" rx="2" ry="2"/>
  <text x="507.6" y="77" font-family='"Inter", sans-serif' font-size="11" font-weight="500" fill="#1a1a1a">90.0%</text>
  <text x="142" y="103" font-family='"Inter", sans-serif' font-size="11" fill="#1a1a1a" text-anchor="end">Zone 2 (Ibadan Periph.)</text>
  <rect x="150" y="90" width="334.4" height="18" fill="#9C1E23" rx="2" ry="2"/>
  <text x="492.4" y="103" font-family='"Inter", sans-serif' font-size="11" font-weight="500" fill="#1a1a1a">88.3%</text>
  <text x="142" y="129" font-family='"Inter", sans-serif' font-size="11" fill="#1a1a1a" text-anchor="end">Zone 3 (Ogbomosho)</text>
  <rect x="150" y="116" width="326.8" height="18" fill="#9C1E23" rx="2" ry="2"/>
  <text x="484.8" y="129" font-family='"Inter", sans-serif' font-size="11" font-weight="500" fill="#1a1a1a">87.5%</text>
  <text x="142" y="155" font-family='"Inter", sans-serif' font-size="11" fill="#1a1a1a" text-anchor="end">Zone 4 (Oyo)</text>
  <rect x="150" y="142" width="326.8" height="18" fill="#9C1E23" rx="2" ry="2"/>
  <text x="484.8" y="155" font-family='"Inter", sans-serif' font-size="11" font-weight="500" fill="#1a1a1a">87.5%</text>
  <text x="142" y="181" font-family='"Inter", sans-serif' font-size="11" fill="#1a1a1a" text-anchor="end">Zone 6 (Ibarapa)</text>
  <rect x="150" y="168" width="319.2" height="18" fill="#9C1E23" rx="2" ry="2"/>
  <text x="477.2" y="181" font-family='"Inter", sans-serif' font-size="11" font-weight="500" fill="#1a1a1a">86.7%</text>
  <text x="142" y="207" font-family='"Inter", sans-serif' font-size="11" fill="#1a1a1a" text-anchor="end">Zone 5 (Oke-Ogun)</text>
  <rect x="150" y="194" width="311.6" height="18" fill="#9C1E23" rx="2" ry="2"/>
  <text x="469.59999999999997" y="207" font-family='"Inter", sans-serif' font-size="11" font-weight="500" fill="#1a1a1a">84.5%</text>
  <text x="142" y="233" font-family='"Inter", sans-serif' font-size="11" fill="#1a1a1a" text-anchor="end">Zone 6 (Ibarapa)</text>
  <rect x="150" y="220" width="364.8" height="18" fill="#9C1E23" rx="2" ry="2"/>
  <text x="522.8" y="233" font-family='"Inter", sans-serif' font-size="11" font-weight="500" fill="#1a1a1a">80.0%</text>
  <text x="142" y="259" font-family='"Inter", sans-serif' font-size="11" fill="#1a1a1a" text-anchor="end">Zone 5 (Oke-Ogun)</text>
  <rect x="150" y="246" width="357.2" height="18" fill="#9C1E23" rx="2" ry="2"/>
  <text x="515.2" y="259" font-family='"Inter", sans-serif' font-size="11" font-weight="500" fill="#1a1a1a">79.1%</text>
  <text x="142" y="285" font-family='"Inter", sans-serif' font-size="11" fill="#1a1a1a" text-anchor="end">Zone 3 (Ogbomosho)</text>
  <rect x="150" y="272" width="342.0" height="18" fill="#9C1E23" rx="2" ry="2"/>
  <text x="500" y="285" font-family='"Inter", sans-serif' font-size="11" font-weight="500" fill="#1a1a1a">77.5%</text>
  <text x="142" y="311" font-family='"Inter", sans-serif' font-size="11" fill="#1a1a1a" text-anchor="end">Zone 4 (Oyo)</text>
  <rect x="150" y="298" width="334.4" height="18" fill="#9C1E23" rx="2" ry="2"/>
  <text x="492.4" y="311" font-family='"Inter", sans-serif' font-size="11" font-weight="500" fill="#1a1a1a">75.0%</text>
  <text x="142" y="337" font-family='"Inter", sans-serif' font-size="11" fill="#1a1a1a" text-anchor="end">Zone 2 (Ibadan Periph.)</text>
  <rect x="150" y="324" width="319.2" height="18" fill="#9C1E23" rx="2" ry="2"/>
  <text x="477.2" y="337" font-family='"Inter", sans-serif' font-size="11" font-weight="500" fill="#1a1a1a">73.3%</text>
  <text x="142" y="363" font-family='"Inter", sans-serif' font-size="11" fill="#1a1a1a" text-anchor="end">Zone 1 (Ibadan Metro)</text>
  <rect x="150" y="350" width="273.6" height="18" fill="#9C1E23" rx="2" ry="2"/>
  <text x="431.59999999999997" y="363" font-family='"Inter", sans-serif' font-size="11" font-weight="500" fill="#1a1a1a">68.0%</text>
  <text x="142" y="389" font-family='"Inter", sans-serif' font-size="11" fill="#1a1a1a" text-anchor="end">Zone 1 (Ibadan Metro)</text>
  <rect x="150" y="376" width="380.0" height="18" fill="#9C1E23" rx="2" ry="2"/>
  <text x="538" y="389" font-family='"Inter", sans-serif' font-size="11" font-weight="500" fill="#1a1a1a">82.0%</text>
  <text x="142" y="415" font-family='"Inter", sans-serif' font-size="11" fill="#1a1a1a" text-anchor="end">Zone 2 (Ibadan Periph.)</text>
  <rect x="150" y="402" width="364.8" height="18" fill="#9C1E23" rx="2" ry="2"/>
  <text x="522.8" y="415" font-family='"Inter", sans-serif' font-size="11" font-weight="500" fill="#1a1a1a">78.3%</text>
  <text x="142" y="441" font-family='"Inter", sans-serif' font-size="11" fill="#1a1a1a" text-anchor="end">Zone 3 (Ogbomosho)</text>
  <rect x="150" y="428" width="342.0" height="18" fill="#9C1E23" rx="2" ry="2"/>
  <text x="500" y="441" font-family='"Inter", sans-serif' font-size="11" font-weight="500" fill="#1a1a1a">72.5%</text>
  <text x="142" y="467" font-family='"Inter", sans-serif' font-size="11" fill="#1a1a1a" text-anchor="end">Zone 4 (Oyo)</text>
  <rect x="150" y="454" width="326.8" height="18" fill="#9C1E23" rx="2" ry="2"/>
  <text x="484.8" y="467" font-family='"Inter", sans-serif' font-size="11" font-weight="500" fill="#1a1a1a">70.0%</text>
  <text x="142" y="493" font-family='"Inter", sans-serif' font-size="11" fill="#1a1a1a" text-anchor="end">Zone 5 (Oke-Ogun)</text>
  <rect x="150" y="480" width="311.6" height="18" fill="#9C1E23" rx="2" ry="2"/>
  <text x="469.59999999999997" y="493" font-family='"Inter", sans-serif' font-size="11" font-weight="500" fill="#1a1a1a">68.2%</text>
  <text x="142" y="519" font-family='"Inter", sans-serif' font-size="11" fill="#1a1a1a" text-anchor="end">Zone 6 (Ibarapa)</text>
  <rect x="150" y="506" width="304.0" height="18" fill="#9C1E23" rx="2" ry="2"/>
  <text x="462" y="519" font-family='"Inter", sans-serif' font-size="11" font-weight="500" fill="#1a1a1a">66.7%</text>
</svg>
