<svg xmlns="http://www.w3.org/2000/svg" viewBox="0 0 630 268" preserveAspectRatio="xMidYMid meet">
  <rect width="630" height="268" fill="#fbf9f2"/>
  <text x="30" y="38" font-family='"Inter", sans-serif' font-size="14" font-weight="600" fill="#1a1a1a">EMPLOYMENT TYPE (n=287 employed)</text>
  <text x="142" y="77" font-family='"Inter", sans-serif' font-size="11" fill="#1a1a1a" text-anchor="end">Self-Employed</text>
  <rect x="150" y="64" width="380.0" height="18" fill="#9C1E23" rx="2" ry="2"/>
  <text x="538" y="77" font-family='"Inter", sans-serif' font-size="11" font-weight="500" fill="#1a1a1a">74.9%</text>
  <text x="142" y="103" font-family='"Inter", sans-serif' font-size="11" fill="#1a1a1a" text-anchor="end">Private Wage</text>
  <rect x="150" y="90" width="57.0" height="18" fill="#9C1E23" rx="2" ry="2"/>
  <text x="215" y="103" font-family='"Inter", sans-serif' font-size="11" font-weight="500" fill="#1a1a1a">11.1%</text>
  <text x="142" y="129" font-family='"Inter", sans-serif' font-size="11" fill="#1a1a1a" text-anchor="end">Public Wage</text>
  <rect x="150" y="116" width="31.7" height="18" fill="#9C1E23" rx="2" ry="2"/>
  <text x="189.66666666666666" y="129" font-family='"Inter", sans-serif' font-size="11" font-weight="500" fill="#1a1a1a">5.6%</text>
  <text x="142" y="155" font-family='"Inter", sans-serif' font-size="11" fill="#1a1a1a" text-anchor="end">Apprentice</text>
  <rect x="150" y="142" width="25.3" height="18" fill="#9C1E23" rx="2" ry="2"/>
  <text x="183.33333333333334" y="155" font-family='"Inter", sans-serif' font-size="11" font-weight="500" fill="#1a1a1a">4.2%</text>
  <text x="142" y="181" font-family='"Inter", sans-serif' font-size="11" fill="#1a1a1a" text-anchor="end">Family Worker</text>
  <rect x="150" y="168" width="12.7" height="18" fill="#9C1E23" rx="2" ry="2"/>
  <text x="170.66666666666666" y="181" font-family='"Inter", sans-serif' font-size="11" font-weight="500" fill="#1a1a1a">2.4%</text>
  <text x="142" y="207" font-family='"Inter", sans-serif' font-size="11" fill="#1a1a1a" text-anchor="end">Contractor</text>
  <rect x="150" y="194" width="12.7" height="18" fill="#9C1E23" rx="2" ry="2"/>
  <text x="170.66666666666666" y="207" font-family='"Inter", sans-serif' font-size="11" font-weight="500" fill="#1a1a1a">1.7%</text>
  <text x="600" y="254" font-family='"Inter", sans-serif' font-size="9" fill="#6b6b6b" text-anchor="end">(n=287 employed)</text>
</svg>
