<svg xmlns="http://www.w3.org/2000/svg" viewBox="0 0 630 268" preserveAspectRatio="xMidYMid meet">
  <rect width="630" height="268" fill="#fbf9f2"/>
  <text x="30" y="38" font-family='"Inter", sans-serif' font-size="14" font-weight="600" fill="#1a1a1a">AGE DISTRIBUTION (n=330)</text>
  <text x="142" y="77" font-family='"Inter", sans-serif' font-size="11" fill="#1a1a1a" text-anchor="end">79 │</text>
  <rect x="150" y="64" width="380.0" height="18" fill="#9C1E23" rx="2" ry="2"/>
  <text x="538" y="77" font-family='"Inter", sans-serif' font-size="11" font-weight="500" fill="#1a1a1a">██</text>
  <text x="142" y="103" font-family='"Inter", sans-serif' font-size="11" fill="#1a1a1a" text-anchor="end">59 │</text>
  <rect x="150" y="90" width="380.0" height="18" fill="#9C1E23" rx="2" ry="2"/>
  <text x="538" y="103" font-family='"Inter", sans-serif' font-size="11" font-weight="500" fill="#1a1a1a">██  ██</text>
  <text x="142" y="129" font-family='"Inter", sans-serif' font-size="11" fill="#1a1a1a" text-anchor="end">56 │</text>
  <rect x="150" y="116" width="380.0" height="18" fill="#9C1E23" rx="2" ry="2"/>
  <text x="538" y="129" font-family='"Inter", sans-serif' font-size="11" font-weight="500" fill="#1a1a1a">██  ██  ██</text>
  <text x="142" y="155" font-family='"Inter", sans-serif' font-size="11" fill="#1a1a1a" text-anchor="end">31 │</text>
  <rect x="150" y="142" width="380.0" height="18" fill="#9C1E23" rx="2" ry="2"/>
  <text x="538" y="155" font-family='"Inter", sans-serif' font-size="11" font-weight="500" fill="#1a1a1a">██  ██  ██  ██</text>
  <text x="142" y="181" font-family='"Inter", sans-serif' font-size="11" fill="#1a1a1a" text-anchor="end">13 │</text>
  <rect x="150" y="168" width="380.0" height="18" fill="#9C1E23" rx="2" ry="2"/>
  <text x="538" y="181" font-family='"Inter", sans-serif' font-size="11" font-weight="500" fill="#1a1a1a">██  ██  ██  ██  ██</text>
  <text x="142" y="207" font-family='"Inter", sans-serif' font-size="11" fill="#1a1a1a" text-anchor="end">│</text>
  <rect x="150" y="194" width="380.0" height="18" fill="#9C1E23" rx="2" ry="2"/>
  <text x="538" y="207" font-family='"Inter", sans-serif' font-size="11" font-weight="500" fill="#1a1a1a">██  ██  ██  ██  ██</text>
  <text x="600" y="254" font-family='"Inter", sans-serif' font-size="9" fill="#6b6b6b" text-anchor="end">(n=330)</text>
</svg>
