<svg xmlns="http://www.w3.org/2000/svg" viewBox="0 0 630 372" preserveAspectRatio="xMidYMid meet">
  <rect width="630" height="372" fill="#fbf9f2"/>
  <text x="30" y="38" font-family='"Inter", sans-serif' font-size="14" font-weight="600" fill="#1a1a1a">TOP 10 SKILLS (n=330, multi-select)</text>
  <text x="142" y="77" font-family='"Inter", sans-serif' font-size="11" fill="#1a1a1a" text-anchor="end">Crop Farming</text>
  <rect x="150" y="64" width="380.0" height="18" fill="#9C1E23" rx="2" ry="2"/>
  <text x="538" y="77" font-family='"Inter", sans-serif' font-size="11" font-weight="500" fill="#1a1a1a">14.2%</text>
  <text x="142" y="103" font-family='"Inter", sans-serif' font-size="11" fill="#1a1a1a" text-anchor="end">Tailoring/Sewing</text>
  <rect x="150" y="90" width="330.4" height="18" fill="#9C1E23" rx="2" ry="2"/>
  <text x="488.4347826086956" y="103" font-family='"Inter", sans-serif' font-size="11" font-weight="500" fill="#1a1a1a">11.5%</text>
  <text x="142" y="129" font-family='"Inter", sans-serif' font-size="11" fill="#1a1a1a" text-anchor="end">Trading/Commerce</text>
  <rect x="150" y="116" width="280.9" height="18" fill="#9C1E23" rx="2" ry="2"/>
  <text x="438.8695652173913" y="129" font-family='"Inter", sans-serif' font-size="11" font-weight="500" fill="#1a1a1a">10.6%</text>
  <text x="142" y="155" font-family='"Inter", sans-serif' font-size="11" fill="#1a1a1a" text-anchor="end">Carpentry</text>
  <rect x="150" y="142" width="239.6" height="18" fill="#9C1E23" rx="2" ry="2"/>
  <text x="397.5652173913044" y="155" font-family='"Inter", sans-serif' font-size="11" font-weight="500" fill="#1a1a1a">8.5%</text>
  <text x="142" y="181" font-family='"Inter", sans-serif' font-size="11" fill="#1a1a1a" text-anchor="end">Catering/Cooking</text>
  <rect x="150" y="168" width="223.0" height="18" fill="#9C1E23" rx="2" ry="2"/>
  <text x="381.0434782608696" y="181" font-family='"Inter", sans-serif' font-size="11" font-weight="500" fill="#1a1a1a">7.9%</text>
  <text x="142" y="207" font-family='"Inter", sans-serif' font-size="11" fill="#1a1a1a" text-anchor="end">Hairdressing</text>
  <rect x="150" y="194" width="198.3" height="18" fill="#9C1E23" rx="2" ry="2"/>
  <text x="356.2608695652174" y="207" font-family='"Inter", sans-serif' font-size="11" font-weight="500" fill="#1a1a1a">7.3%</text>
  <text x="142" y="233" font-family='"Inter", sans-serif' font-size="11" fill="#1a1a1a" text-anchor="end">Auto Mechanic</text>
  <rect x="150" y="220" width="190.0" height="18" fill="#9C1E23" rx="2" ry="2"/>
  <text x="348" y="233" font-family='"Inter", sans-serif' font-size="11" font-weight="500" fill="#1a1a1a">7.0%</text>
  <text x="142" y="259" font-family='"Inter", sans-serif' font-size="11" fill="#1a1a1a" text-anchor="end">Baking</text>
  <rect x="150" y="246" width="173.5" height="18" fill="#9C1E23" rx="2" ry="2"/>
  <text x="331.47826086956525" y="259" font-family='"Inter", sans-serif' font-size="11" font-weight="500" fill="#1a1a1a">6.4%</text>
  <text x="142" y="285" font-family='"Inter", sans-serif' font-size="11" fill="#1a1a1a" text-anchor="end">Welding</text>
  <rect x="150" y="272" width="165.2" height="18" fill="#9C1E23" rx="2" ry="2"/>
  <text x="323.2173913043478" y="285" font-family='"Inter", sans-serif' font-size="11" font-weight="500" fill="#1a1a1a">6.1%</text>
  <text x="142" y="311" font-family='"Inter", sans-serif' font-size="11" fill="#1a1a1a" text-anchor="end">Electrical</text>
  <rect x="150" y="298" width="157.0" height="18" fill="#9C1E23" rx="2" ry="2"/>
  <text x="314.95652173913044" y="311" font-family='"Inter", sans-serif' font-size="11" font-weight="500" fill="#1a1a1a">5.8%</text>
  <text x="600" y="358" font-family='"Inter", sans-serif' font-size="9" fill="#6b6b6b" text-anchor="end">(n=330, multi-select)</text>
</svg>
